<svg width="143" height="64" viewBox="0 0 143 64" fill="none" xmlns="http://www.w3.org/2000/svg">
<path d="M2.08341 17.8518C3.30741 17.8518 4.16682 16.9668 4.16682 15.8216C4.16682 14.7544 3.28137 13.9476 2.08341 13.9476C0.885449 13.9476 0 14.8065 0 15.8997C0 16.9928 0.885449 17.8518 2.08341 17.8518ZM0.442724 34.0412H3.69805V20.1422H0.442724V34.0412Z" fill="#2A2825"/>
<path d="M14.299 19.9861C12.2677 19.9861 10.5749 20.6628 9.50718 21.9382V20.1422H6.40811V34.0412H9.66344V27.0136C9.66344 24.2286 11.226 22.8231 13.5438 22.8231C15.6272 22.8231 16.8512 24.0204 16.8512 26.493V34.0412H20.1065V26.0766C20.1065 21.8861 17.6325 19.9861 14.299 19.9861Z" fill="#2A2825"/>
<path d="M33.1657 14.7284V21.8601C32.0719 20.5847 30.4833 19.9861 28.6864 19.9861C24.6497 19.9861 21.6548 22.771 21.6548 27.0917C21.6548 31.4123 24.6497 34.2234 28.6864 34.2234C30.5875 34.2234 32.2021 33.5727 33.2959 32.2452V34.0412H36.421V14.7284H33.1657ZM29.077 31.4384C26.7332 31.4384 24.9362 29.7465 24.9362 27.0917C24.9362 24.4368 26.7332 22.745 29.077 22.745C31.4208 22.745 33.2178 24.4368 33.2178 27.0917C33.2178 29.7465 31.4208 31.4384 29.077 31.4384Z" fill="#2A2825"/>
<path d="M49.4559 20.1422V21.834C48.3361 20.5847 46.7736 19.9861 45.0027 19.9861C40.94 19.9861 37.9712 22.771 37.9712 27.0917C37.9712 31.4123 40.94 34.2234 45.0027 34.2234C46.9038 34.2234 48.5184 33.5727 49.6122 32.2452V34.0412H52.7113V20.1422H49.4559ZM45.3673 31.4384C43.0234 31.4384 41.2525 29.7465 41.2525 27.0917C41.2525 24.4368 43.0234 22.745 45.3673 22.745C47.7371 22.745 49.508 24.4368 49.508 27.0917C49.508 29.7465 47.7371 31.4384 45.3673 31.4384Z" fill="#2A2825"/>
<path d="M89.5437 34.2235C93.45 34.2235 95.846 32.5317 95.846 29.9289C95.846 24.4891 87.2519 26.9878 87.2519 24.1767C87.2519 23.2658 88.1894 22.6151 90.1687 22.6151C91.4968 22.6151 92.825 22.8753 94.1532 23.6562L95.4032 21.1835C94.1532 20.4287 92.0437 19.9862 90.1947 19.9862C86.4446 19.9862 84.0747 21.7041 84.0747 24.3329C84.0747 29.8769 92.6688 27.3782 92.6688 30.033C92.6688 30.9961 91.8094 31.5687 89.752 31.5687C88.0071 31.5687 86.1321 30.9961 84.9081 30.1892L83.658 32.6619C84.9081 33.5468 87.2259 34.2235 89.5437 34.2235Z" fill="#2A2825"/>
<path d="M103.988 30.97C103.493 31.3605 102.842 31.5427 102.165 31.5427C100.941 31.5427 100.238 30.8139 100.238 29.4604V22.8493H103.962V20.2465H100.238V17.0711H96.9827V29.5385C96.9827 32.6098 98.7275 34.2235 101.775 34.2235C102.946 34.2235 104.118 33.9112 104.9 33.2865L103.988 30.97Z" fill="#2A2825"/>
<path d="M115.909 20.1424V21.8342C114.789 20.5849 113.227 19.9862 111.456 19.9862C107.393 19.9862 104.424 22.7712 104.424 27.0919C104.424 31.4125 107.393 34.2235 111.456 34.2235C113.357 34.2235 114.971 33.5728 116.065 32.2454V34.0413H119.164V20.1424H115.909ZM111.82 31.4385C109.476 31.4385 107.706 29.7467 107.706 27.0919C107.706 24.437 109.476 22.7452 111.82 22.7452C114.19 22.7452 115.961 24.437 115.961 27.0919C115.961 29.7467 114.19 31.4385 111.82 31.4385Z" fill="#2A2825"/>
<path d="M124.96 22.1726V20.1424H121.861V34.0413H125.116V27.3001C125.116 24.463 126.679 23.0055 129.153 23.0055C129.387 23.0055 129.622 23.0315 129.908 23.0836V19.9862C127.59 19.9862 125.898 20.715 124.96 22.1726Z" fill="#2A2825"/>
<path d="M135.455 34.2235C139.361 34.2235 141.757 32.5317 141.757 29.9289C141.757 24.4891 133.163 26.9878 133.163 24.1767C133.163 23.2658 134.101 22.6151 136.08 22.6151C137.408 22.6151 138.736 22.8753 140.064 23.6562L141.315 21.1835C140.064 20.4287 137.955 19.9862 136.106 19.9862C132.356 19.9862 129.986 21.7041 129.986 24.3329C129.986 29.8769 138.58 27.3782 138.58 30.033C138.58 30.9961 137.721 31.5687 135.663 31.5687C133.918 31.5687 132.043 30.9961 130.819 30.1892L129.569 32.6619C130.819 33.5468 133.137 34.2235 135.455 34.2235Z" fill="#2A2825"/>
<path d="M79.7745 28.1599L78.6465 21.5915L83.4208 16.9398L83.4224 16.9383C86.0481 14.3804 85.2281 11.854 81.5976 11.3282L74.9986 10.3698L72.0475 4.39346C70.4234 1.10607 67.7677 1.10607 66.1452 4.39346L63.194 10.3698L56.595 11.3282C52.9661 11.8556 52.1446 14.3804 54.7718 16.9383C54.7718 16.9383 54.7718 16.9383 54.7734 16.9398L59.5477 21.5915L58.4197 28.1599C57.8004 31.7726 59.949 33.3342 63.1956 31.6273H63.1972L69.0995 28.5262L75.0018 31.6273H75.0034C78.2452 33.3342 80.3938 31.7726 79.7745 28.1599Z" fill="url(#paint0_linear_589_3243)"/>
<path fill-rule="evenodd" clip-rule="evenodd" d="M81.6743 27.8329L81.6744 27.8335C82.0351 29.9378 81.7113 32.1806 79.9704 33.4458C78.3647 34.6127 76.341 34.3762 74.5544 33.5531H74.5256L69.0991 30.7021L63.6727 33.5531H63.6433C61.8551 34.3761 59.8305 34.6127 58.2243 33.4461C56.4822 32.181 56.1584 29.9378 56.5191 27.8335L57.4757 22.263L53.4185 18.31L53.4167 18.3081C51.8913 16.819 50.8392 14.8183 51.5034 12.7753C52.1689 10.7285 54.2033 9.72757 56.3172 9.42037L61.9134 8.6076L64.4158 3.53999C64.4158 3.53988 64.4159 3.53976 64.416 3.53964C65.361 1.625 66.9417 0 69.0954 0C71.2489 0 72.83 1.62479 73.7758 3.53933L76.2786 8.6076L81.8738 9.42024C81.874 9.42028 81.8743 9.42031 81.8745 9.42035C83.9894 9.72681 86.0239 10.7277 86.6893 12.7748C87.3533 14.8175 86.3019 16.8184 84.7773 18.3077L84.7753 18.3097L84.7677 18.317L84.7662 18.3185L80.7178 22.263L81.6743 27.8329ZM78.6461 21.5904L79.7742 28.1589C80.3935 31.7715 78.2449 33.3331 75.003 31.6263H75.0014L69.0991 28.5252L63.1968 31.6263H63.1952C59.9487 33.3331 57.8001 31.7715 58.4194 28.1589L59.5474 21.5904L54.7731 16.9388L54.7715 16.9372C52.1442 14.3793 52.9657 11.8546 56.5947 11.3272L63.1937 10.3688L66.1448 4.3924C67.7673 1.10502 70.423 1.10502 72.0471 4.3924L74.9983 10.3688L81.5973 11.3272C85.2278 11.853 86.0477 14.3793 83.422 16.9372L83.4204 16.9388L78.6461 21.5904Z" fill="#2A2825"/>
<path d="M60.3234 28.1603L61.4514 21.5918L56.6771 16.9402C56.6771 16.9402 56.6771 16.9386 56.6756 16.9386C54.0483 14.3807 54.8698 11.856 58.4987 11.3286L65.0977 10.3702L68.0489 4.3938C68.6176 3.24116 69.3143 2.49431 70.0474 2.1501C68.6887 1.5122 67.1973 2.25905 66.1436 4.3938L63.194 10.3702L56.595 11.3286C52.9661 11.856 52.1446 14.3807 54.7718 16.9386C54.7718 16.9386 54.7718 16.9386 54.7734 16.9402L59.5477 21.5918L58.4197 28.1603C57.892 31.2329 59.3676 32.8198 61.818 32.1771C60.5699 31.7413 59.9537 30.3155 60.3234 28.1603Z" fill="url(#paint1_linear_589_3243)"/>
<path d="M63.0307 14.5936C61.4138 14.5936 60.0969 15.9097 60.0969 17.5258C60.0969 19.1419 61.4124 20.4566 63.0307 20.4566C63.7376 20.4566 64.3863 20.205 64.8926 19.7875C65.1581 19.6783 65.3601 19.4557 65.4472 19.1806C65.7723 18.7092 65.9632 18.1396 65.9632 17.5244C65.9632 15.9097 64.6477 14.5936 63.0307 14.5936Z" fill="url(#paint2_linear_589_3243)"/>
<path d="M76.9279 19.1818C77.2529 18.7104 77.4438 18.1408 77.4438 17.5256C77.4438 15.9095 76.1284 14.5934 74.5114 14.5934C72.8944 14.5934 71.5789 15.9095 71.5789 17.5256C71.5789 19.1417 72.8944 20.4564 74.5114 20.4564C75.2182 20.4564 75.8669 20.2048 76.3732 19.7873C76.6374 19.6795 76.8393 19.4569 76.9279 19.1818Z" fill="url(#paint3_linear_589_3243)"/>
<path d="M77.7137 17.5266C77.7137 18.9962 76.5228 20.1878 75.051 20.1878C73.5806 20.1878 72.3883 18.9962 72.3883 17.5266C72.3883 16.0571 73.5806 14.8654 75.051 14.8654C76.5214 14.8654 77.7137 16.0571 77.7137 17.5266Z" fill="#2A2825"/>
<path d="M75.0509 20.457C73.4339 20.457 72.1185 19.1423 72.1185 17.5263C72.1185 15.9102 73.4339 14.5955 75.0509 14.5955C76.6679 14.5955 77.9833 15.9102 77.9833 17.5263C77.9833 19.1423 76.6679 20.457 75.0509 20.457ZM75.0509 15.136C73.7327 15.136 72.6593 16.2088 72.6593 17.5263C72.6593 18.8437 73.7327 19.9165 75.0509 19.9165C76.3691 19.9165 77.4425 18.8437 77.4425 17.5263C77.4425 16.2088 76.3705 15.136 75.0509 15.136Z" fill="#2A2825"/>
<path d="M77.1465 18.7792C77.1465 19.3173 76.7108 19.753 76.1727 19.753C75.6346 19.753 75.1989 19.3173 75.1989 18.7792C75.1989 18.2411 75.6346 17.8054 76.1727 17.8054C76.7108 17.8054 77.1465 18.2411 77.1465 18.7792Z" fill="white"/>
<path d="M75.5056 16.7489C75.5056 17.4308 74.9537 17.9828 74.2718 17.9828C73.5899 17.9828 73.038 17.4308 73.038 16.7489C73.038 16.0684 73.5899 15.5151 74.2718 15.5151C74.9537 15.5151 75.5056 16.067 75.5056 16.7489Z" fill="white"/>
<path d="M77.4262 16.6248C77.4262 16.9692 77.1468 17.25 76.8023 17.25C76.4579 17.25 76.1771 16.9706 76.1771 16.6248C76.1771 16.2804 76.4565 15.9996 76.8023 15.9996C77.1468 16.001 77.4262 16.2804 77.4262 16.6248Z" fill="white"/>
<path d="M66.2317 17.5264C66.2317 18.996 65.0407 20.1877 63.569 20.1877C62.0986 20.1877 60.9062 18.996 60.9062 17.5264C60.9062 16.0569 62.0986 14.8652 63.569 14.8652C65.0393 14.8652 66.2317 16.0569 66.2317 17.5264Z" fill="#2A2825"/>
<path d="M63.5689 20.4569C61.9519 20.4569 60.6365 19.1422 60.6365 17.5261C60.6365 15.91 61.9519 14.5953 63.5689 14.5953C65.1859 14.5953 66.5014 15.91 66.5014 17.5261C66.5014 19.1422 65.1859 20.4569 63.5689 20.4569ZM63.5689 15.1358C62.2507 15.1358 61.1773 16.2086 61.1773 17.5261C61.1773 18.8435 62.2507 19.9163 63.5689 19.9163C64.8871 19.9163 65.9605 18.8435 65.9605 17.5261C65.9605 16.2086 64.8885 15.1358 63.5689 15.1358Z" fill="#2A2825"/>
<path d="M65.6654 18.779C65.6654 19.3171 65.2296 19.7528 64.6916 19.7528C64.1535 19.7528 63.7178 19.3171 63.7178 18.779C63.7178 18.241 64.1535 17.8052 64.6916 17.8052C65.2296 17.8052 65.6654 18.241 65.6654 18.779Z" fill="white"/>
<path d="M64.0245 16.7487C64.0245 17.4307 63.4726 17.9826 62.7907 17.9826C62.1087 17.9826 61.5568 17.4307 61.5568 16.7487C61.5568 16.0682 62.1087 15.5149 62.7907 15.5149C63.4726 15.5149 64.0245 16.0668 64.0245 16.7487Z" fill="white"/>
<path d="M65.9441 16.6246C65.9441 16.969 65.6647 17.2498 65.3203 17.2498C64.9759 17.2498 64.6951 16.9704 64.6951 16.6246C64.6951 16.2802 64.9745 15.9994 65.3203 15.9994C65.6647 16.0008 65.9441 16.2802 65.9441 16.6246Z" fill="white"/>
<path d="M69.9432 20.6485C69.6278 20.6485 69.3359 20.5407 69.1049 20.3622C68.8725 20.542 68.5821 20.6485 68.2667 20.6485C67.5101 20.6485 66.8945 20.033 66.8945 19.2764C66.8945 18.9776 67.1366 18.7355 67.4354 18.7355C67.7342 18.7355 67.9762 18.9776 67.9762 19.2764C67.9762 19.4354 68.1062 19.5655 68.2653 19.5655C68.4244 19.5655 68.5544 19.4354 68.5544 19.2764C68.5544 18.9776 68.7965 18.7355 69.0952 18.7355C69.394 18.7355 69.6541 18.9776 69.6541 19.2764C69.6541 19.4354 69.7841 19.5655 69.9432 19.5655C70.1022 19.5655 70.2323 19.4354 70.2323 19.2764C70.2323 18.9776 70.4743 18.7355 70.7731 18.7355C71.0719 18.7355 71.3139 18.9776 71.3139 19.2764C71.3153 20.033 70.6998 20.6485 69.9432 20.6485Z" fill="#2A2825"/>
<path d="M52.945 58.2133C52.406 58.155 52.0492 57.9221 51.8744 57.5145C51.7578 57.398 51.685 57.3034 51.6559 57.2306C51.6413 57.1578 51.6413 57.085 51.6559 57.0122C51.8307 57.0122 51.9326 56.9831 51.9618 56.9248C51.9618 56.8812 51.9836 56.8521 52.0273 56.8375C52.0856 56.8229 52.1438 56.8229 52.2021 56.8375C52.5808 56.8666 53.1052 56.6628 53.7753 56.226C54.46 55.7893 55.1956 55.2069 55.9822 54.479C56.39 53.9549 56.6668 53.5837 56.8125 53.3653C56.9581 53.1324 57.031 52.9431 57.031 52.7975C57.031 52.7247 56.9946 52.6155 56.9217 52.4699C56.8489 52.3535 56.7324 52.2952 56.5721 52.2952C56.3099 52.2952 55.953 52.4408 55.5015 52.732C54.8751 53.1251 54.3726 53.489 53.9938 53.8239C53.6151 54.1442 53.2655 54.5227 52.945 54.9594C52.7556 55.2069 52.5736 55.4326 52.3988 55.6364C52.2385 55.8257 52.1293 55.9567 52.071 56.0295C52.071 56.0877 51.9836 56.1605 51.8088 56.2479C51.6486 56.3352 51.5102 56.3789 51.3937 56.3789C51.3208 56.3498 51.2334 56.2916 51.1315 56.2042C51.0441 56.1169 50.9931 56.0149 50.9785 55.8985C50.9494 55.8694 50.8838 55.8257 50.7819 55.7674C50.6945 55.6947 50.6289 55.6146 50.5852 55.5272C50.5415 55.4399 50.5197 55.338 50.5197 55.2215C50.5197 55.0031 50.5925 54.6319 50.7382 54.1078C50.8693 53.5109 51.0149 52.9213 51.1752 52.3389C51.35 51.742 51.4665 51.4145 51.5248 51.3562C51.5393 51.3271 51.5685 51.247 51.6122 51.116C51.6704 50.985 51.6996 50.8467 51.6996 50.7011C51.7287 50.5701 51.7724 50.4245 51.8307 50.2643C51.9035 50.0896 51.9399 49.9877 51.9399 49.9586C52.0127 49.9004 52.2458 49.3253 52.6391 48.2334C52.6391 48.1752 52.7993 47.7894 53.1198 47.076C53.5859 45.9841 53.8773 45.2853 53.9938 44.9796C54.0666 44.8631 54.1905 44.652 54.3653 44.3463C54.3944 44.3026 54.4527 44.208 54.5401 44.0624C54.642 43.9023 54.7222 43.8076 54.7804 43.7785C54.8824 43.7494 55.1009 43.8222 55.4359 43.9969C55.7855 44.1716 56.0113 44.339 56.1133 44.4992C56.1278 44.5283 56.1424 44.5647 56.157 44.6083C56.1861 44.6375 56.2007 44.6739 56.2007 44.7175C56.2007 44.7903 56.157 44.9214 56.0696 45.1106C55.9967 45.2999 55.9093 45.4964 55.8074 45.7002C55.72 45.8895 55.6544 46.0351 55.6107 46.137L54.9771 47.4473C54.3653 48.7866 53.8409 50.0896 53.4039 51.3562C53.2728 51.7639 53.1562 52.0914 53.0543 52.3389L52.945 52.8193L53.5131 52.1861C53.7753 51.924 54.1031 51.6547 54.4964 51.3781C54.6712 51.2616 54.9261 51.1306 55.2611 50.985C55.5962 50.8394 55.8292 50.752 55.9603 50.7229C56.4265 50.6065 56.827 50.5482 57.1621 50.5482C57.701 50.5482 58.1963 50.934 58.6479 51.7056C58.779 51.9386 58.8445 52.237 58.8445 52.601C58.8445 52.863 58.8081 53.1251 58.7353 53.3871C58.6624 53.6492 58.5678 53.8821 58.4512 54.0859C58.3784 54.1442 58.3056 54.2242 58.2327 54.3262C58.1599 54.4135 58.1235 54.4863 58.1235 54.5445C58.1089 54.6319 57.9851 54.8284 57.752 55.1342C57.519 55.4399 57.264 55.7456 56.9873 56.0513C56.6085 56.4444 56.106 56.8375 55.4796 57.2306C54.8678 57.6237 54.358 57.893 53.9501 58.0386C53.8627 58.0531 53.6952 58.0823 53.4476 58.1259C53.2145 58.155 53.047 58.1842 52.945 58.2133Z" fill="#2A2825"/>
<path d="M66.412 50.2425C66.5431 50.5045 66.6087 50.803 66.6087 51.1378C66.6087 51.56 66.514 51.9094 66.3246 52.1861C66.1789 52.3899 66.0478 52.6956 65.9313 53.1032C65.8293 53.5109 65.7274 54.0568 65.6254 54.7411C65.4943 55.2943 65.3341 56.146 65.1447 57.2961C64.9116 57.9075 64.766 58.3661 64.7077 58.6719C64.6931 58.7592 64.6203 58.9412 64.4892 59.2178C64.3727 59.4944 64.278 59.7128 64.2051 59.8729C63.5496 61.1978 62.7703 62.195 61.8672 62.8647C60.9786 63.5344 60.0682 63.8984 59.1359 63.9566C58.9029 63.9857 58.7645 64.0003 58.7208 64.0003C58.5897 64.0003 58.4659 63.9785 58.3493 63.9348C58.2474 63.8911 58.1308 63.8329 57.9997 63.7601C57.7084 63.5563 57.5409 63.4107 57.4972 63.3233C57.4243 63.1777 57.3879 63.0321 57.3879 62.8866C57.3879 62.6682 57.4899 62.5153 57.6938 62.428C57.8978 62.3552 58.1308 62.3188 58.393 62.3188C58.495 62.377 58.6698 62.4061 58.9174 62.4061C59.1651 62.4061 59.3107 62.377 59.3544 62.3188C59.3836 62.2897 59.471 62.2387 59.6166 62.1659C59.7623 62.1077 59.9298 62.0567 60.1192 62.0131C60.5999 61.7801 60.964 61.5472 61.2117 61.3142C61.4739 61.0813 61.7579 60.7101 62.0638 60.2005C62.428 59.6473 62.6684 59.145 62.7849 58.6937C62.9743 58.2133 63.2 57.4999 63.4622 56.5536L63.4404 56.5754C63.3676 56.6628 63.1855 56.7938 62.8941 56.9685C62.6028 57.1287 62.428 57.2087 62.3697 57.2087C62.3552 57.2087 62.3333 57.216 62.3042 57.2306C62.2751 57.2451 62.2605 57.2743 62.2605 57.3179C62.2605 57.3762 62.0711 57.4708 61.6924 57.6018C61.3136 57.7183 61.0733 57.7765 60.9713 57.7765C60.8257 57.7765 60.6654 57.6965 60.4906 57.5363C60.3304 57.3762 60.2139 57.2306 60.141 57.0996C60.0828 56.9685 59.9735 56.8375 59.8133 56.7065C59.6385 56.5318 59.5074 56.3789 59.42 56.2479C59.3326 56.1023 59.2889 55.9349 59.2889 55.7456C59.2889 55.6437 59.2962 55.5636 59.3107 55.5054C59.4855 54.8503 59.806 53.8457 60.2721 52.4918C60.7528 51.1233 61.1024 50.2716 61.3209 49.9368C61.3792 49.8494 61.4884 49.7766 61.6487 49.7184C61.8089 49.6601 61.9692 49.631 62.1294 49.631C62.4207 49.631 62.6174 49.7184 62.7193 49.8931C62.8941 50.1406 62.9815 50.3517 62.9815 50.5264C62.9815 50.7302 62.8796 51.0287 62.6756 51.4217C62.6174 51.5819 62.5445 51.7566 62.4571 51.9458C62.3697 52.1351 62.326 52.2516 62.326 52.2952C62.3115 52.3535 62.2678 52.5355 62.1949 52.8412C62.1221 53.1324 62.0566 53.2779 61.9983 53.2779C61.9109 53.3653 61.8089 53.671 61.6924 54.1951C61.5904 54.7047 61.5394 55.1123 61.5394 55.418C61.5394 55.5927 61.5613 55.6801 61.605 55.6801C61.9983 55.6801 62.377 55.5782 62.7412 55.3744C63.1054 55.156 63.4841 54.8139 63.8774 54.348C63.9357 53.984 64.0158 53.5909 64.1177 53.1688C64.2343 52.7466 64.3144 52.4627 64.3581 52.3171C64.6203 51.4145 64.7951 50.6865 64.8825 50.1333C64.9699 49.9295 65.0354 49.813 65.0791 49.7839C65.1228 49.7402 65.2175 49.7184 65.3632 49.7184C65.538 49.7184 65.7274 49.7693 65.9313 49.8712C66.1498 49.9732 66.31 50.0969 66.412 50.2425Z" fill="#2A2825"/>
<path d="M74.9993 49.2161C74.8536 49.1142 74.7371 48.9832 74.6497 48.823C74.5623 48.6629 74.5113 48.51 74.4967 48.3644C74.4821 48.2189 74.4967 48.1315 74.5404 48.1024C74.6278 48.0005 74.7152 47.8622 74.8026 47.6875C74.89 47.5128 74.9556 47.389 74.9993 47.3162C75.1158 47.0542 75.2105 46.8649 75.2833 46.7484C75.3853 46.5446 75.48 46.4354 75.5674 46.4209C75.6839 46.3626 75.7786 46.3335 75.8514 46.3335C76.0408 46.3335 76.2447 46.399 76.4632 46.5301C76.6963 46.6611 76.8711 46.814 76.9876 46.9887C77.0896 47.2216 77.1406 47.4254 77.1406 47.6001C77.1406 47.9495 76.973 48.3353 76.638 48.7575C76.4923 48.9468 76.3175 49.0924 76.1136 49.1943C75.9097 49.2962 75.7057 49.3471 75.5018 49.3471C75.2979 49.3471 75.1304 49.3035 74.9993 49.2161ZM72.6394 57.9731C72.4355 57.7692 72.3335 57.4053 72.3335 56.8812C72.3335 56.6046 72.37 56.3935 72.4428 56.2479C72.4428 56.1751 72.4574 56.0877 72.4865 55.9858C72.5156 55.8839 72.5302 55.8184 72.5302 55.7893C72.5156 55.7019 72.5739 55.4617 72.705 55.0686C72.8798 54.6756 73.0983 54.0714 73.3605 53.2561C73.6373 52.4408 73.8266 51.8585 73.9286 51.5091C73.9286 51.4363 73.9577 51.3781 74.016 51.3344C74.0743 51.2761 74.1617 51.2397 74.2782 51.2252C74.4384 51.167 74.6424 51.2397 74.89 51.4436C75.1376 51.6328 75.3416 51.8512 75.5018 52.0987C75.5892 52.1861 75.6329 52.3025 75.6329 52.4481C75.6329 52.6665 75.5382 52.9722 75.3489 53.3653C75.276 53.5254 75.2032 53.722 75.1304 53.9549C75.0721 54.1878 75.0211 54.4062 74.9774 54.61C74.8026 55.0031 74.6642 55.3671 74.5622 55.7019C74.5185 55.8912 74.4894 56.0368 74.4748 56.1387C74.3729 56.6774 74.2782 57.0268 74.1908 57.1869C74.1034 57.5509 73.9796 57.8275 73.8193 58.0167C73.6591 58.1914 73.477 58.2788 73.2731 58.2788C73.0255 58.2788 72.8142 58.1769 72.6394 57.9731Z" fill="#2A2825"/>
<path d="M83.68 57.6892C83.4615 57.6892 83.243 57.6309 83.0245 57.5145C82.806 57.398 82.6312 57.2233 82.5001 56.9904L82.3909 56.772C82.2161 56.277 82.1287 55.7966 82.1287 55.3307V54.3698C82.1287 54.2097 82.1141 54.1296 82.085 54.1296C81.9685 54.1296 81.4659 54.6028 80.5773 55.5491C79.951 56.2042 79.4047 56.7138 78.9386 57.0777C78.487 57.4271 78.1738 57.6018 77.999 57.6018C77.9408 57.6018 77.8024 57.5509 77.5839 57.449C77.3654 57.3325 77.227 57.2451 77.1687 57.1869C77.0668 57.085 77.0012 56.9612 76.9721 56.8157C76.9429 56.6701 76.9284 56.3935 76.9284 55.9858C76.9284 55.52 77.0231 54.9958 77.2124 54.4135C77.4018 53.8166 77.7223 53.0232 78.1738 52.0332C78.2904 51.8294 78.4069 51.5819 78.5234 51.2907C78.8585 50.5337 79.1716 50.0096 79.463 49.7184C79.5795 49.7184 79.6596 49.7257 79.7033 49.7402C79.8927 49.7548 80.1112 49.8421 80.3588 50.0023C80.621 50.1624 80.7813 50.3735 80.8395 50.6356C80.8395 50.8831 80.8031 51.1306 80.7303 51.3781C80.6575 51.6255 80.4899 51.9313 80.2277 52.2952C80.0675 52.5136 79.8563 52.9868 79.5941 53.7147C79.5213 53.8312 79.4193 54.0131 79.2882 54.2606C79.1716 54.4936 79.1134 54.6246 79.1134 54.6537C79.1279 54.6683 79.1716 54.6392 79.2445 54.5664C79.3173 54.479 79.3901 54.3989 79.463 54.3262L80.0529 53.7365C81.2037 52.5864 82.0923 51.9968 82.7186 51.9677C83.0391 51.9677 83.3232 52.1351 83.5708 52.4699C83.8184 52.8048 83.9422 53.2051 83.9422 53.671C83.9422 53.7584 83.9277 54.0059 83.8985 54.4135V55.6583C84.2336 55.5709 84.4885 55.4908 84.6633 55.418C85.0275 55.287 85.4062 55.2069 85.7995 55.1778C85.7704 55.4253 85.632 55.7529 85.3844 56.1605C85.1513 56.5682 84.8745 56.9249 84.5541 57.2306C84.2336 57.5363 83.9422 57.6892 83.68 57.6892Z" fill="#2A2825"/>
<path d="M92.8786 58.7592C92.6892 58.8029 92.5071 58.7592 92.3323 58.6282C92.1575 58.4972 92.0264 58.3443 91.939 58.1696C91.8662 57.9658 91.8152 57.7692 91.7861 57.58C91.757 57.3762 91.7351 57.1068 91.7205 56.772L91.6987 56.0295L90.8028 56.8375C89.8851 57.6965 89.033 58.1259 88.2464 58.1259C88.0133 58.0823 87.7147 57.8857 87.3505 57.5363C87.0009 57.1869 86.7751 56.8885 86.6732 56.641C86.6149 56.5245 86.5858 56.3425 86.5858 56.095C86.5858 55.5418 86.7314 54.8794 87.0228 54.1078C87.3141 53.3216 87.6783 52.6883 88.1153 52.2079C88.4357 51.7275 88.8218 51.3635 89.2733 51.116C89.7249 50.8685 90.1837 50.7448 90.6499 50.7448C91.0869 50.7448 91.4729 50.8394 91.8079 51.0287C92.0119 51.1306 92.1794 51.1815 92.3105 51.1815C92.4562 51.1815 92.5508 51.0869 92.5945 50.8976C92.6091 50.8248 92.6965 50.5337 92.8567 50.0241L93.0971 49.3253C93.4176 48.3644 93.6943 47.5928 93.9274 47.0105C94.1605 46.4282 94.4445 45.7876 94.7795 45.0888C94.9252 44.783 95.0782 44.5574 95.2384 44.4118C95.3986 44.2662 95.5443 44.2007 95.6754 44.2153C95.8648 44.2153 96.0687 44.2808 96.2872 44.4118C96.5203 44.5283 96.6732 44.6811 96.7461 44.8704C96.7898 44.9723 96.8116 45.0961 96.8116 45.2416C96.8116 45.4018 96.7679 45.5692 96.6805 45.7439C96.3018 46.399 95.8356 47.4691 95.2821 48.9541C94.7286 50.439 94.2988 51.7275 93.9929 52.8193C93.8764 53.2124 93.789 53.7584 93.7307 54.4572C93.687 55.156 93.6652 55.8402 93.6652 56.5099C93.6652 57.1505 93.687 57.5509 93.7307 57.711C93.7599 57.7984 93.7744 57.9148 93.7744 58.0604C93.7744 58.3079 93.687 58.4753 93.5122 58.5627C93.352 58.6646 93.1408 58.7301 92.8786 58.7592ZM89.2733 56.1169C89.6084 55.9858 89.9798 55.7674 90.3877 55.4617C90.8247 55.1414 91.1379 54.8575 91.3272 54.61C91.5312 54.3626 91.6914 54.0495 91.8079 53.671C91.8371 53.5982 91.8516 53.4963 91.8516 53.3653C91.8516 53.1032 91.7278 52.863 91.4802 52.6446C91.3345 52.5282 91.167 52.4699 90.9776 52.4699C90.6717 52.4699 90.3513 52.6301 90.0162 52.9504C89.6375 53.2998 89.3316 53.6929 89.0985 54.1296C88.8655 54.5518 88.6688 55.1342 88.5086 55.8766C88.4794 55.9785 88.494 56.0659 88.5523 56.1387C88.6105 56.1969 88.7052 56.226 88.8363 56.226C88.9383 56.226 89.084 56.1896 89.2733 56.1169Z" fill="#2A2825"/>
<path d="M97.6276 58.0386C97.4819 58.0677 97.3508 58.0823 97.2343 58.0823C97.0449 58.0823 96.8701 58.0677 96.7099 58.0386C96.5496 57.9949 96.4695 57.9439 96.4695 57.8857C96.4695 57.842 96.4622 57.8129 96.4477 57.7984C96.4331 57.7838 96.404 57.7765 96.3603 57.7765C96.3166 57.7328 96.2146 57.6601 96.0544 57.5581C95.9087 57.4417 95.7849 57.3616 95.6829 57.3179C95.5081 57.0704 95.4207 56.8011 95.4207 56.5099C95.4207 56.2333 95.5081 55.7893 95.6829 55.1778C95.6975 54.61 95.9014 53.9767 96.2947 53.2779C96.7026 52.5646 97.1906 51.9094 97.7587 51.3125C98.3268 50.7011 98.8366 50.2643 99.2882 50.0023C99.5067 49.7839 99.8126 49.6747 100.206 49.6747C100.512 49.6747 100.781 49.7402 101.014 49.8712C101.204 49.9877 101.437 50.2352 101.714 50.6137C102.005 50.9923 102.223 51.3344 102.369 51.6401C102.398 51.742 102.435 51.8803 102.478 52.055C102.537 52.2297 102.566 52.4408 102.566 52.6883L102.522 53.2998C102.347 53.8967 102.26 54.4353 102.26 54.9158C102.231 55.1196 102.245 55.287 102.303 55.418C102.362 55.5345 102.442 55.5927 102.544 55.5927C102.617 55.5927 102.697 55.5709 102.784 55.5272C102.872 55.4836 102.974 55.4617 103.09 55.4617C103.279 55.4617 103.44 55.52 103.571 55.6364C103.702 55.7529 103.767 55.8985 103.767 56.0732C103.767 56.2188 103.731 56.3571 103.658 56.4881C103.527 56.7793 103.279 57.0413 102.915 57.2743C102.566 57.5072 102.238 57.6237 101.932 57.6237C101.684 57.6237 101.444 57.4926 101.211 57.2306C100.992 56.9685 100.818 56.6264 100.687 56.2042L100.555 55.7019L99.7689 56.4226L99.2663 56.9248C99.0333 57.1578 98.9022 57.2961 98.873 57.3398C98.8002 57.4562 98.6691 57.5654 98.4797 57.6673C98.3049 57.7692 98.0209 57.893 97.6276 58.0386ZM98.2175 55.9422C98.4797 55.7966 98.6982 55.6146 98.873 55.3962C99.0624 55.1778 99.2955 54.8721 99.5722 54.479C99.6305 54.3917 99.6888 54.3043 99.747 54.217C99.8053 54.1151 99.8781 54.0131 99.9655 53.9112C100.213 53.5764 100.388 53.3071 100.49 53.1032C100.606 52.8994 100.694 52.681 100.752 52.4481C100.694 52.2588 100.606 52.0841 100.49 51.924C100.388 51.7493 100.293 51.6547 100.206 51.6401C99.798 51.6401 99.2445 52.1205 98.5453 53.0814C98.4724 53.1833 98.3559 53.3653 98.1957 53.6273C98.05 53.8894 97.9553 54.0641 97.9116 54.1515C97.8388 54.2534 97.7368 54.5009 97.6057 54.8939C97.4892 55.2725 97.4309 55.52 97.4309 55.6364C97.4309 55.9567 97.5256 56.1169 97.715 56.1169C97.8606 56.1169 98.0282 56.0586 98.2175 55.9422Z" fill="#2A2825"/>
<path d="M105.803 60.3315C105.716 60.3024 105.541 60.2442 105.279 60.1568C105.016 60.084 104.834 60.0477 104.732 60.0477C104.557 60.004 104.412 59.9093 104.295 59.7638C104.193 59.6182 104.142 59.4508 104.142 59.2615C104.142 59.1596 104.15 59.0795 104.164 59.0213C104.208 58.9776 104.244 58.8611 104.273 58.6719C104.317 58.4972 104.339 58.337 104.339 58.1914C104.383 58.1041 104.419 58.0167 104.448 57.9294C104.477 57.8275 104.514 57.6892 104.557 57.5145C104.674 56.8739 104.943 55.7966 105.366 54.2825C105.788 52.7684 106.051 51.9604 106.153 51.8585V51.6183C106.153 51.5746 106.167 51.4872 106.196 51.3562C106.225 51.2252 106.291 51.0869 106.393 50.9413C106.451 50.7666 106.495 50.5992 106.524 50.439C106.568 50.2643 106.597 50.1333 106.611 50.046C106.67 49.9732 106.764 49.7548 106.895 49.3908C107.041 49.0269 107.136 48.7866 107.179 48.6702C107.281 48.3936 107.405 48.0733 107.551 47.7093C107.711 47.3308 107.82 47.0833 107.879 46.9668V46.8576C107.908 46.8285 107.981 46.6829 108.097 46.4209C108.228 46.1443 108.338 45.9113 108.425 45.7221C108.527 45.4891 108.796 44.885 109.233 43.9095C109.263 43.8513 109.343 43.6839 109.474 43.4073C109.605 43.1307 109.67 42.956 109.67 42.8832C109.816 42.723 109.976 42.6429 110.151 42.6429C110.37 42.6429 110.574 42.7449 110.763 42.9487C110.967 43.1379 111.127 43.3418 111.244 43.5601L111.462 43.9095L110.654 45.4819C110.435 45.8749 110.238 46.2462 110.064 46.5956C109.889 46.9304 109.801 47.127 109.801 47.1852C109.758 47.2871 109.678 47.4982 109.561 47.8185C109.459 48.1388 109.343 48.5027 109.212 48.9104C109.008 49.4636 108.84 49.8785 108.709 50.1551C108.592 50.3881 108.534 50.5264 108.534 50.5701C108.534 50.5118 109.343 50.4827 110.96 50.4827C111.207 50.4827 111.659 50.4754 112.314 50.4609C112.97 50.4463 113.385 50.4245 113.56 50.3954L114.696 50.2862L115.308 48.3426C115.453 47.8331 115.774 46.8431 116.269 45.3727C116.473 44.7612 116.706 44.3099 116.968 44.0187C117.231 43.713 117.464 43.5601 117.668 43.5601C117.726 43.5601 117.871 43.6475 118.105 43.8222C118.352 43.9823 118.498 44.1206 118.542 44.2371C118.702 44.3972 118.782 44.5647 118.782 44.7394C118.782 44.9432 118.665 45.2271 118.432 45.591C118.257 45.8968 118.01 46.4718 117.689 47.3162C117.558 47.7093 117.478 47.935 117.449 47.9932C117.449 48.2989 117.376 48.5246 117.23 48.6702C117.172 48.7284 117.07 48.9395 116.925 49.3035C116.779 49.6529 116.706 49.8567 116.706 49.9149C116.706 50.0314 116.684 50.1624 116.641 50.308C116.597 50.439 116.546 50.5337 116.488 50.5919L116.335 51.116C115.825 52.9649 115.424 54.2461 115.133 54.9594C115.133 55.0322 115.096 55.1633 115.024 55.3525C114.951 55.5418 114.914 55.6728 114.914 55.7456C114.885 55.8475 114.82 56.0513 114.718 56.3571C114.616 56.6628 114.565 56.8448 114.565 56.903C114.463 57.3543 114.361 57.8857 114.259 58.4972C114.157 59.1086 114.091 59.5381 114.062 59.7856C113.815 59.8147 113.611 59.8002 113.45 59.7419C113.29 59.6837 113.137 59.6036 112.992 59.5017C112.846 59.4144 112.744 59.3561 112.686 59.327C112.336 59.1377 112.161 58.8757 112.161 58.5408C112.161 58.3516 112.227 58.1259 112.358 57.8639C112.402 57.7911 112.54 57.3179 112.773 56.4444L112.97 55.6364C113.086 55.3161 113.188 55.0104 113.276 54.7192C113.363 54.4135 113.443 54.1515 113.516 53.9331C113.749 53.0887 113.895 52.6374 113.953 52.5791V52.3608C113.909 52.288 113.48 52.2516 112.664 52.2516C111.775 52.2516 110.85 52.3098 109.889 52.4263H108.578H108.01C107.937 52.5864 107.726 53.227 107.376 54.348C107.027 55.4544 106.83 56.1605 106.786 56.4663C106.684 56.9467 106.524 57.6091 106.305 58.4535C106.087 59.3124 105.919 59.9385 105.803 60.3315Z" fill="#2A2825"/>
<path d="M118.481 57.9512C118.233 58.0095 117.934 57.8784 117.585 57.5581C117.235 57.2379 117.031 56.9394 116.973 56.6628C116.944 56.5172 116.929 56.3935 116.929 56.2916C116.929 55.7238 117.111 55.0395 117.476 54.2388C117.84 53.4235 118.328 52.6592 118.94 51.9458C119.566 51.2325 120.251 50.7156 120.993 50.3954C121.299 50.2352 121.496 50.1551 121.583 50.1551C121.671 50.1551 121.867 50.2352 122.173 50.3954C122.465 50.4681 122.698 50.5482 122.873 50.6356C123.047 50.7229 123.208 50.8612 123.353 51.0505C123.543 51.429 123.681 51.8949 123.768 52.4481C123.856 52.7538 123.9 52.9722 123.9 53.1032C123.9 53.2197 123.856 53.3216 123.768 53.409C123.754 53.4235 123.725 53.4526 123.681 53.4963C123.652 53.54 123.637 53.5764 123.637 53.6055C123.637 53.6201 123.652 53.6273 123.681 53.6273C123.681 53.6419 123.674 53.6783 123.659 53.7365C123.645 53.7802 123.616 53.8457 123.572 53.9331C123.397 54.4863 123.31 54.9158 123.31 55.2215C123.31 55.3234 123.324 55.4472 123.353 55.5927C123.499 55.9713 123.681 56.1605 123.9 56.1605C124.103 56.1605 124.337 56.0295 124.599 55.7674C124.817 55.6219 125.036 55.5491 125.254 55.5491C125.385 55.5491 125.451 55.5855 125.451 55.6583C125.465 55.6728 125.495 55.6947 125.538 55.7238C125.582 55.7529 125.626 55.7674 125.669 55.7674C125.728 55.7674 125.757 55.833 125.757 55.964C125.757 56.0805 125.728 56.2333 125.669 56.4226C125.626 56.6118 125.567 56.7647 125.495 56.8812C125.393 56.9831 125.313 57.0704 125.254 57.1432C125.196 57.216 125.167 57.2743 125.167 57.3179L124.839 57.6237C124.562 57.7838 124.235 57.8639 123.856 57.8639C123.463 57.8639 123.149 57.7838 122.916 57.6237C122.683 57.4635 122.465 57.267 122.261 57.034C122.057 56.7865 121.926 56.5682 121.867 56.3789L121.758 56.1605L121.125 56.5754L120.578 57.1432C120.462 57.2888 120.36 57.3616 120.272 57.3616H120.054C120.054 57.4635 119.85 57.5873 119.442 57.7328C119.034 57.8784 118.714 57.9512 118.481 57.9512ZM118.94 56.1169C119.1 56.1169 119.428 55.9349 119.923 55.5709C120.433 55.1924 120.775 54.8939 120.95 54.6756C121.008 54.6028 121.081 54.5009 121.168 54.3698C121.27 54.2242 121.358 54.1151 121.43 54.0423C121.664 53.7657 121.831 53.5473 121.933 53.3871C122.05 53.2124 122.108 53.045 122.108 52.8849C122.108 52.7684 122.057 52.6082 121.955 52.4044C121.897 52.2297 121.809 52.1424 121.693 52.1424C121.634 52.1424 121.467 52.1933 121.19 52.2952C120.913 52.4554 120.586 52.783 120.207 53.2779C119.843 53.7729 119.522 54.2752 119.245 54.7847C118.969 55.2943 118.83 55.6655 118.83 55.8985C118.83 55.9421 118.845 55.9858 118.874 56.0295C118.903 56.0732 118.925 56.1023 118.94 56.1169Z" fill="#2A2825"/>
<path d="M128.399 58.4753C127.948 58.4753 127.525 58.3734 127.132 58.1696C126.739 57.9658 126.426 57.711 126.193 57.4053C125.96 57.085 125.843 56.772 125.843 56.4663C125.843 56.2188 125.945 56.095 126.149 56.095C126.28 56.1241 126.433 56.2042 126.608 56.3352C126.826 56.4663 127.008 56.5682 127.154 56.641C127.314 56.7138 127.474 56.7501 127.635 56.7501C127.882 56.7501 128.094 56.7138 128.268 56.641C128.458 56.5536 128.567 56.4299 128.596 56.2697C128.596 56.2115 128.567 56.0877 128.509 55.8985C128.45 55.6947 128.378 55.5127 128.29 55.3525C127.97 54.8721 127.751 54.4062 127.635 53.9549C127.533 53.489 127.467 52.9504 127.438 52.3389C127.438 52.0041 127.678 51.6037 128.159 51.1378C128.654 50.672 129.222 50.257 129.863 49.8931C130.519 49.5291 131.051 49.3253 131.458 49.2816C132.26 49.2816 132.74 49.3471 132.901 49.4782C133.105 49.6383 133.294 49.9004 133.469 50.2643C133.643 50.6283 133.731 50.934 133.731 51.1815C133.731 51.2834 133.68 51.4145 133.578 51.5746C133.491 51.7202 133.432 51.8148 133.403 51.8585L133.206 52.1642L133.054 52.4918C133.024 52.5646 132.973 52.6738 132.901 52.8193C132.842 52.9649 132.784 53.0523 132.726 53.0814C132.682 53.1105 132.609 53.1178 132.507 53.1032C132.26 53.1032 132.034 52.9941 131.83 52.7757C131.626 52.5573 131.524 52.3171 131.524 52.055C131.524 51.8658 131.59 51.6765 131.721 51.4872C131.852 51.298 131.917 51.1888 131.917 51.1597C131.917 51.1014 131.852 51.0723 131.721 51.0723C131.531 51.0723 131.24 51.167 130.847 51.3562C130.453 51.5455 130.104 51.8003 129.798 52.1205C129.492 52.4263 129.339 52.7684 129.339 53.1469C129.339 53.3507 129.375 53.5909 129.448 53.8676C129.536 54.1296 129.63 54.348 129.732 54.5227C129.849 54.6392 130.016 54.9886 130.235 55.5709C130.468 56.1387 130.584 56.59 130.584 56.9248C130.584 57.4344 130.388 57.8202 129.995 58.0823C129.616 58.3443 129.084 58.4753 128.399 58.4753Z" fill="#2A2825"/>
<path d="M141.851 58.1914C141.443 58.3079 141.137 58.3661 140.933 58.3661C140.642 58.3661 140.401 58.2715 140.212 58.0823C140.168 58.024 140.088 57.9221 139.971 57.7765C139.87 57.6164 139.789 57.449 139.731 57.2743C139.687 57.085 139.666 56.8521 139.666 56.5754C139.666 56.3716 139.673 56.1969 139.687 56.0513C139.702 55.9058 139.717 55.7893 139.731 55.7019L139.775 55.0686C139.848 54.7629 139.884 54.4572 139.884 54.1515C139.884 53.7584 139.819 53.5618 139.687 53.5618C139.265 53.489 138.122 54.5081 136.257 56.6191C136.082 56.8521 135.987 56.9904 135.973 57.034C135.827 57.2379 135.703 57.4053 135.601 57.5363C135.499 57.6673 135.427 57.7328 135.383 57.7328C134.99 57.7474 134.655 57.6601 134.378 57.4708C134.101 57.267 133.941 57.0195 133.897 56.7283C133.883 56.5827 134.174 55.6146 134.771 53.8239L135.733 50.985C135.849 50.621 136.06 50.0751 136.366 49.3471L136.781 48.2771L137.044 47.622L138.049 44.9577V44.8704C138.049 44.6229 138.1 44.4482 138.202 44.3463L138.508 44.3245C138.508 44.2953 138.609 44.3317 138.813 44.4336C139.032 44.521 139.229 44.6302 139.403 44.7612C139.593 44.8777 139.687 44.9723 139.687 45.0451C139.731 45.147 139.753 45.2635 139.753 45.3945C139.753 45.7293 139.585 46.3044 139.25 47.1197C139.119 47.3089 138.923 47.7675 138.66 48.4955C138.515 48.9031 138.406 49.187 138.333 49.3471C138.187 49.6092 137.969 50.1115 137.677 50.8539C137.386 51.5964 137.146 52.3025 136.956 52.9722C136.84 53.2488 136.781 53.4526 136.781 53.5837C136.781 53.6565 136.803 53.6929 136.847 53.6929C136.949 53.6929 137.109 53.5546 137.328 53.2779C138.114 52.4481 138.726 51.8512 139.163 51.4872C139.6 51.1233 139.986 50.9559 140.321 50.985C140.525 51.0287 140.802 51.2106 141.151 51.5309C141.516 51.8366 141.741 52.106 141.829 52.3389C141.916 52.6592 141.96 52.9868 141.96 53.3216C141.96 53.54 141.923 54.1806 141.851 55.2433C141.734 55.9713 141.676 56.3935 141.676 56.5099C141.676 56.641 141.69 56.7356 141.719 56.7938C141.763 56.8521 141.843 56.9321 141.96 57.034C142.135 57.1651 142.222 57.347 142.222 57.58C142.222 57.8566 142.098 58.0604 141.851 58.1914Z" fill="#2A2825"/>
<defs>
<linearGradient id="paint0_linear_589_3243" x1="69.0967" y1="1.92792" x2="69.0967" y2="32.3193" gradientUnits="userSpaceOnUse">
<stop stop-color="#F682D1"/>
<stop offset="1" stop-color="#FB817B"/>
</linearGradient>
<linearGradient id="paint1_linear_589_3243" x1="61.6403" y1="1.92975" x2="61.6403" y2="32.3184" gradientUnits="userSpaceOnUse">
<stop stop-color="#E971C3"/>
<stop offset="1" stop-color="#EF706A"/>
</linearGradient>
<linearGradient id="paint2_linear_589_3243" x1="63.0301" y1="14.5936" x2="63.0301" y2="20.4566" gradientUnits="userSpaceOnUse">
<stop stop-color="#E971C3"/>
<stop offset="1" stop-color="#EF706A"/>
</linearGradient>
<linearGradient id="paint3_linear_589_3243" x1="74.5114" y1="14.5934" x2="74.5114" y2="20.4564" gradientUnits="userSpaceOnUse">
<stop stop-color="#E971C3"/>
<stop offset="1" stop-color="#EF706A"/>
</linearGradient>
</defs>
</svg>
