<svg width="144" height="64" viewBox="0 0 144 64" fill="none" xmlns="http://www.w3.org/2000/svg">
<path d="M3.04825 17.8517C4.27226 17.8517 5.13166 16.9668 5.13166 15.8215C5.13166 14.7544 4.24621 13.9475 3.04825 13.9475C1.85029 13.9475 0.964844 14.8064 0.964844 15.8996C0.964844 16.9928 1.85029 17.8517 3.04825 17.8517ZM1.40757 34.0411H4.6629V20.1422H1.40757V34.0411Z" fill="#2A2825"/>
<path d="M15.2639 19.986C13.2325 19.986 11.5398 20.6627 10.472 21.9381V20.1422H7.37295V34.0411H10.6283V27.0135C10.6283 24.2286 12.1908 22.823 14.5086 22.823C16.592 22.823 17.816 24.0203 17.816 26.493V34.0411H21.0714V26.0765C21.0714 21.886 18.5973 19.986 15.2639 19.986Z" fill="#2A2825"/>
<path d="M34.1305 14.7283V21.86C33.0367 20.5846 31.4481 19.986 29.6512 19.986C25.6146 19.986 22.6197 22.771 22.6197 27.0916C22.6197 31.4123 25.6146 34.2233 29.6512 34.2233C31.5523 34.2233 33.1669 33.5726 34.2607 32.2452V34.0411H37.3859V14.7283H34.1305ZM30.0418 31.4383C27.698 31.4383 25.9011 29.7465 25.9011 27.0916C25.9011 24.4368 27.698 22.745 30.0418 22.745C32.3857 22.745 34.1826 24.4368 34.1826 27.0916C34.1826 29.7465 32.3857 31.4383 30.0418 31.4383Z" fill="#2A2825"/>
<path d="M50.4208 20.1422V21.834C49.301 20.5846 47.7384 19.986 45.9675 19.986C41.9049 19.986 38.936 22.771 38.936 27.0916C38.936 31.4123 41.9049 34.2233 45.9675 34.2233C47.8686 34.2233 49.4833 33.5726 50.577 32.2452V34.0411H53.6761V20.1422H50.4208ZM46.3321 31.4383C43.9883 31.4383 42.2174 29.7465 42.2174 27.0916C42.2174 24.4368 43.9883 22.745 46.3321 22.745C48.702 22.745 50.4729 24.4368 50.4729 27.0916C50.4729 29.7465 48.702 31.4383 46.3321 31.4383Z" fill="#2A2825"/>
<path d="M90.5087 34.2235C94.4151 34.2235 96.811 32.5317 96.811 29.9289C96.811 24.489 88.2169 26.9877 88.2169 24.1767C88.2169 23.2657 89.1545 22.615 91.1337 22.615C92.4619 22.615 93.79 22.8753 95.1182 23.6561L96.3683 21.1835C95.1182 20.4287 93.0088 19.9862 91.1597 19.9862C87.4096 19.9862 85.0397 21.704 85.0397 24.3328C85.0397 29.8768 93.6338 27.3781 93.6338 30.033C93.6338 30.996 92.7744 31.5686 90.717 31.5686C88.9722 31.5686 87.0971 30.996 85.8731 30.1891L84.623 32.6618C85.8731 33.5467 88.1909 34.2235 90.5087 34.2235Z" fill="#2A2825"/>
<path d="M104.953 30.97C104.458 31.3604 103.807 31.5426 103.13 31.5426C101.906 31.5426 101.203 30.8138 101.203 29.4604V22.8493H104.927V20.2465H101.203V17.071H97.9477V29.5384C97.9477 32.6097 99.6926 34.2235 102.74 34.2235C103.911 34.2235 105.083 33.9111 105.865 33.2865L104.953 30.97Z" fill="#2A2825"/>
<path d="M116.874 20.1423V21.8342C115.754 20.5848 114.192 19.9862 112.421 19.9862C108.358 19.9862 105.389 22.7712 105.389 27.0918C105.389 31.4125 108.358 34.2235 112.421 34.2235C114.322 34.2235 115.936 33.5728 117.03 32.2453V34.0413H120.129V20.1423H116.874ZM112.785 31.4385C110.441 31.4385 108.671 29.7467 108.671 27.0918C108.671 24.437 110.441 22.7451 112.785 22.7451C115.155 22.7451 116.926 24.437 116.926 27.0918C116.926 29.7467 115.155 31.4385 112.785 31.4385Z" fill="#2A2825"/>
<path d="M125.925 22.1725V20.1423H122.826V34.0413H126.081V27.3C126.081 24.463 127.644 23.0054 130.118 23.0054C130.352 23.0054 130.587 23.0314 130.873 23.0835V19.9862C128.555 19.9862 126.863 20.715 125.925 22.1725Z" fill="#2A2825"/>
<path d="M136.42 34.2235C140.326 34.2235 142.722 32.5317 142.722 29.9289C142.722 24.489 134.128 26.9877 134.128 24.1767C134.128 23.2657 135.066 22.615 137.045 22.615C138.373 22.615 139.701 22.8753 141.03 23.6561L142.28 21.1835C141.03 20.4287 138.92 19.9862 137.071 19.9862C133.321 19.9862 130.951 21.704 130.951 24.3328C130.951 29.8768 139.545 27.3781 139.545 30.033C139.545 30.996 138.686 31.5686 136.628 31.5686C134.883 31.5686 133.008 30.996 131.784 30.1891L130.534 32.6618C131.784 33.5467 134.102 34.2235 136.42 34.2235Z" fill="#2A2825"/>
<path d="M80.7385 28.16L79.6105 21.5915L84.3848 16.9399L84.3863 16.9383C87.012 14.3804 86.1921 11.8541 82.5616 11.3283L75.9626 10.3699L73.0114 4.39352C71.3874 1.10613 68.7316 1.10613 67.1091 4.39352L64.158 10.3699L57.559 11.3283C53.9301 11.8557 53.1085 14.3804 55.7358 16.9383C55.7358 16.9383 55.7358 16.9383 55.7374 16.9399L60.5117 21.5915L59.3837 28.16C58.7644 31.7726 60.913 33.3342 64.1596 31.6274H64.1611L70.0635 28.5263L75.9658 31.6274H75.9673C79.2092 33.3342 81.3578 31.7726 80.7385 28.16Z" fill="#A788FF"/>
<path fill-rule="evenodd" clip-rule="evenodd" d="M82.6384 27.8329L82.6385 27.8335C82.9993 29.9378 82.6754 32.1806 80.9345 33.4458C79.3288 34.6127 77.3051 34.3762 75.5185 33.5531H75.4897L70.0632 30.7021L64.6368 33.5531H64.6074C62.8192 34.3761 60.7946 34.6127 59.1884 33.4461C57.4464 32.181 57.1225 29.9378 57.4832 27.8335L58.4399 22.263L54.3826 18.31L54.3808 18.3081C52.8554 16.819 51.8034 14.8183 52.4675 12.7753C53.133 10.7285 55.1675 9.72757 57.2813 9.42037L62.8775 8.6076L65.3799 3.53999C65.38 3.53988 65.38 3.53976 65.3801 3.53964C66.3251 1.625 67.9058 0 70.0595 0C72.213 0 73.7941 1.62479 74.7399 3.53933L77.2427 8.6076L82.8379 9.42024C82.8381 9.42028 82.8384 9.42031 82.8387 9.42035C84.9535 9.72681 86.988 10.7277 87.6535 12.7748C88.3174 14.8175 87.266 16.8184 85.7414 18.3077L85.7394 18.3097L85.7318 18.317L85.7303 18.3185L81.6819 22.263L82.6384 27.8329ZM79.6103 21.5904L80.7383 28.1589C81.3576 31.7715 79.209 33.3331 75.9671 31.6263H75.9655L70.0632 28.5252L64.1609 31.6263H64.1594C60.9128 33.3331 58.7642 31.7715 59.3835 28.1589L60.5115 21.5904L55.7372 16.9388L55.7356 16.9372C53.1083 14.3793 53.9299 11.8546 57.5588 11.3272L64.1578 10.3688L67.1089 4.3924C68.7314 1.10502 71.3872 1.10502 73.0112 4.3924L75.9624 10.3688L82.5614 11.3272C86.1919 11.853 87.0118 14.3793 84.3861 16.9372L84.3845 16.9388L79.6103 21.5904Z" fill="#2A2825"/>
<path d="M70.8486 22.6984C70.5549 22.6984 70.2832 22.5979 70.0681 22.4317C69.8517 22.5992 69.5812 22.6984 69.2875 22.6984C68.5829 22.6984 68.0098 22.1252 68.0098 21.4206C68.0098 21.1424 68.2352 20.917 68.5134 20.917C68.7916 20.917 69.017 21.1424 69.017 21.4206C69.017 21.5687 69.1381 21.6898 69.2862 21.6898C69.4343 21.6898 69.5554 21.5687 69.5554 21.4206C69.5554 21.1424 69.7808 20.917 70.059 20.917C70.3373 20.917 70.5794 21.1424 70.5794 21.4206C70.5794 21.5687 70.7005 21.6898 70.8486 21.6898C70.9967 21.6898 71.1178 21.5687 71.1178 21.4206C71.1178 21.1424 71.3432 20.917 71.6214 20.917C71.8997 20.917 72.1251 21.1424 72.1251 21.4206C72.1264 22.1252 71.5532 22.6984 70.8486 22.6984Z" fill="#2A2825"/>
<path d="M59.5723 14.4001V15.4142H60.4462V16.4283H59.5723V18.4565H60.4462V19.4712H61.3207V20.4852H67.4389V19.4712H68.3129V18.4565H69.1869V16.4283H68.3129V15.4142H71.8093V16.4283H70.9353V18.4565H71.8093V19.4712H72.6832V20.4852H78.802V19.4712H79.6759V18.4565H80.5499V16.4283H79.6759V15.4142H80.5499V14.4001H59.5723Z" fill="#2A2825"/>
<path d="M74.4322 16.4281H73.5583V15.4141H74.4322V16.4281ZM62.1952 16.4281H61.3213V17.4422H62.1952V16.4281ZM63.9432 16.4281H63.0692V17.4422H63.9432V16.4281ZM73.5577 16.4281H72.6838V17.4422H73.5577V16.4281ZM75.3062 16.4281H74.4322V17.4422H75.3062V16.4281ZM64.8171 17.4422H63.9432V18.4563H64.8171V17.4422ZM74.4322 17.4422H73.5583V18.4563H74.4322V17.4422ZM76.1801 17.4422H75.3062V18.4563H76.1801V17.4422ZM63.9432 18.4563H63.0692V19.4704H63.9432V18.4563ZM65.6916 18.4563H64.8176V19.4704H65.6916V18.4563ZM75.3062 18.4563H74.4322V19.4704H75.3062V18.4563ZM77.0541 18.4563H76.1801V19.4704H77.0541V18.4563ZM63.0692 15.4141H62.1952V16.4281H63.0692V15.4141ZM63.0692 17.4422H62.1952V18.4563H63.0692V17.4422Z" fill="#EFEFEF"/>
<path d="M53.9097 58.2132C53.3708 58.1549 53.0139 57.922 52.8391 57.5143C52.7225 57.3979 52.6497 57.3032 52.6206 57.2305C52.606 57.1577 52.606 57.0849 52.6206 57.0121C52.7954 57.0121 52.8973 56.983 52.9265 56.9247C52.9265 56.8811 52.9483 56.8519 52.992 56.8374C53.0503 56.8228 53.1086 56.8228 53.1668 56.8374C53.5456 56.8665 54.07 56.6627 54.74 56.2259C55.4247 55.7892 56.1603 55.2068 56.9469 54.4789C57.3548 53.9548 57.6315 53.5835 57.7772 53.3652C57.9229 53.1322 57.9957 52.943 57.9957 52.7974C57.9957 52.7246 57.9593 52.6154 57.8864 52.4698C57.8136 52.3534 57.6971 52.2951 57.5368 52.2951C57.2746 52.2951 56.9178 52.4407 56.4662 52.7319C55.8398 53.125 55.3373 53.4889 54.9585 53.8238C54.5798 54.1441 54.2302 54.5226 53.9097 54.9593C53.7204 55.2068 53.5383 55.4325 53.3635 55.6363C53.2032 55.8256 53.094 55.9566 53.0357 56.0294C53.0357 56.0876 52.9483 56.1604 52.7735 56.2478C52.6133 56.3351 52.4749 56.3788 52.3584 56.3788C52.2855 56.3497 52.1981 56.2914 52.0962 56.2041C52.0088 56.1167 51.9578 56.0148 51.9432 55.8984C51.9141 55.8692 51.8485 55.8256 51.7466 55.7673C51.6592 55.6945 51.5936 55.6145 51.5499 55.5271C51.5062 55.4398 51.4844 55.3378 51.4844 55.2214C51.4844 55.003 51.5572 54.6318 51.7029 54.1077C51.834 53.5108 51.9796 52.9211 52.1399 52.3388C52.3147 51.7419 52.4312 51.4143 52.4895 51.3561C52.504 51.327 52.5332 51.2469 52.5769 51.1159C52.6351 50.9849 52.6643 50.8465 52.6643 50.701C52.6934 50.5699 52.7371 50.4243 52.7954 50.2642C52.8682 50.0895 52.9046 49.9876 52.9046 49.9585C52.9775 49.9002 53.2105 49.3252 53.6038 48.2333C53.6038 48.1751 53.7641 47.7893 54.0845 47.0759C54.5507 45.984 54.842 45.2852 54.9585 44.9795C55.0314 44.863 55.1552 44.6519 55.33 44.3462C55.3591 44.3025 55.4174 44.2079 55.5048 44.0623C55.6068 43.9021 55.6869 43.8075 55.7451 43.7784C55.8471 43.7493 56.0656 43.8221 56.4006 43.9968C56.7502 44.1715 56.976 44.3389 57.078 44.499C57.0926 44.5282 57.1071 44.5645 57.1217 44.6082C57.1508 44.6373 57.1654 44.6737 57.1654 44.7174C57.1654 44.7902 57.1217 44.9212 57.0343 45.1105C56.9615 45.2998 56.8741 45.4963 56.7721 45.7001C56.6847 45.8894 56.6191 46.035 56.5754 46.1369L55.9418 47.4471C55.33 48.7865 54.8056 50.0895 54.3686 51.3561C54.2375 51.7637 54.121 52.0913 54.019 52.3388L53.9097 52.8192L54.4778 52.1859C54.74 51.9239 55.0678 51.6545 55.4611 51.3779C55.6359 51.2615 55.8908 51.1304 56.2258 50.9849C56.5609 50.8393 56.7939 50.7519 56.925 50.7228C57.3912 50.6063 57.7918 50.5481 58.1268 50.5481C58.6658 50.5481 59.161 50.9339 59.6126 51.7055C59.7437 51.9384 59.8093 52.2369 59.8093 52.6008C59.8093 52.8629 59.7728 53.125 59.7 53.387C59.6272 53.6491 59.5325 53.882 59.416 54.0858C59.3431 54.1441 59.2703 54.2241 59.1975 54.326C59.1246 54.4134 59.0882 54.4862 59.0882 54.5444C59.0736 54.6318 58.9498 54.8283 58.7168 55.134C58.4837 55.4398 58.2288 55.7455 57.952 56.0512C57.5733 56.4443 57.0707 56.8374 56.4443 57.2305C55.8325 57.6235 55.3227 57.8929 54.9148 58.0385C54.8274 58.053 54.6599 58.0821 54.4123 58.1258C54.1792 58.1549 54.0117 58.184 53.9097 58.2132Z" fill="#2A2825"/>
<path d="M67.3767 50.2424C67.5078 50.5044 67.5734 50.8029 67.5734 51.1377C67.5734 51.5599 67.4787 51.9093 67.2893 52.1859C67.1437 52.3898 67.0126 52.6955 66.896 53.1031C66.7941 53.5108 66.6921 54.0567 66.5901 54.7409C66.459 55.2942 66.2988 56.1458 66.1094 57.296C65.8764 57.9074 65.7307 58.366 65.6724 58.6717C65.6579 58.7591 65.585 58.9411 65.4539 59.2177C65.3374 59.4943 65.2427 59.7127 65.1699 59.8728C64.5144 61.1977 63.735 62.1949 62.8319 62.8646C61.9433 63.5343 61.0329 63.8983 60.1006 63.9565C59.8676 63.9856 59.7292 64.0002 59.6855 64.0002C59.5544 64.0002 59.4306 63.9783 59.314 63.9347C59.2121 63.891 59.0955 63.8327 58.9644 63.7599C58.6731 63.5561 58.5056 63.4105 58.4619 63.3232C58.3891 63.1776 58.3526 63.032 58.3526 62.8864C58.3526 62.6681 58.4546 62.5152 58.6585 62.4278C58.8625 62.3551 59.0955 62.3187 59.3577 62.3187C59.4597 62.3769 59.6345 62.406 59.8821 62.406C60.1298 62.406 60.2754 62.3769 60.3191 62.3187C60.3483 62.2895 60.4357 62.2386 60.5813 62.1658C60.727 62.1076 60.8945 62.0566 61.0839 62.0129C61.5646 61.78 61.9288 61.5471 62.1764 61.3141C62.4386 61.0812 62.7227 60.7099 63.0286 60.2004C63.3927 59.6472 63.6331 59.1449 63.7496 58.6936C63.939 58.2132 64.1648 57.4998 64.427 56.5535L64.4051 56.5753C64.3323 56.6627 64.1502 56.7937 63.8589 56.9684C63.5675 57.1285 63.3927 57.2086 63.3345 57.2086C63.3199 57.2086 63.298 57.2159 63.2689 57.2305C63.2398 57.245 63.2252 57.2741 63.2252 57.3178C63.2252 57.376 63.0358 57.4707 62.6571 57.6017C62.2784 57.7182 62.038 57.7764 61.9361 57.7764C61.7904 57.7764 61.6302 57.6963 61.4554 57.5362C61.2951 57.376 61.1786 57.2305 61.1057 57.0994C61.0475 56.9684 60.9382 56.8374 60.778 56.7064C60.6032 56.5316 60.4721 56.3788 60.3847 56.2478C60.2973 56.1022 60.2536 55.9347 60.2536 55.7455C60.2536 55.6436 60.2609 55.5635 60.2754 55.5053C60.4502 54.8501 60.7707 53.8456 61.2369 52.4917C61.7176 51.1232 62.0672 50.2715 62.2857 49.9366C62.3439 49.8493 62.4532 49.7765 62.6134 49.7183C62.7736 49.66 62.9339 49.6309 63.0941 49.6309C63.3854 49.6309 63.5821 49.7183 63.6841 49.893C63.8589 50.1405 63.9463 50.3516 63.9463 50.5263C63.9463 50.7301 63.8443 51.0285 63.6404 51.4216C63.5821 51.5818 63.5093 51.7565 63.4219 51.9457C63.3345 52.135 63.2908 52.2514 63.2908 52.2951C63.2762 52.3534 63.2325 52.5353 63.1597 52.8411C63.0868 53.1322 63.0213 53.2778 62.963 53.2778C62.8756 53.3652 62.7736 53.6709 62.6571 54.195C62.5551 54.7046 62.5042 55.1122 62.5042 55.4179C62.5042 55.5926 62.526 55.68 62.5697 55.68C62.963 55.68 63.3417 55.5781 63.7059 55.3742C64.0701 55.1559 64.4488 54.8137 64.8421 54.3479C64.9004 53.9839 64.9805 53.5908 65.0825 53.1686C65.199 52.7464 65.2791 52.4625 65.3228 52.317C65.585 51.4143 65.7598 50.6864 65.8472 50.1332C65.9346 49.9294 66.0002 49.8129 66.0439 49.7838C66.0876 49.7401 66.1823 49.7183 66.3279 49.7183C66.5027 49.7183 66.6921 49.7692 66.896 49.8711C67.1145 49.973 67.2748 50.0968 67.3767 50.2424Z" fill="#2A2825"/>
<path d="M75.964 49.216C75.8183 49.1141 75.7018 48.9831 75.6144 48.8229C75.527 48.6628 75.476 48.5099 75.4614 48.3643C75.4469 48.2187 75.4614 48.1314 75.5051 48.1023C75.5925 48.0004 75.6799 47.8621 75.7673 47.6873C75.8547 47.5126 75.9203 47.3889 75.964 47.3161C76.0805 47.0541 76.1752 46.8648 76.248 46.7483C76.35 46.5445 76.4447 46.4353 76.5321 46.4208C76.6486 46.3625 76.7433 46.3334 76.8161 46.3334C77.0055 46.3334 77.2094 46.3989 77.4279 46.5299C77.661 46.661 77.8358 46.8138 77.9523 46.9885C78.0543 47.2215 78.1053 47.4253 78.1053 47.6C78.1053 47.9494 77.9378 48.3352 77.6027 48.7574C77.4571 48.9467 77.2823 49.0922 77.0783 49.1942C76.8744 49.2961 76.6705 49.347 76.4665 49.347C76.2626 49.347 76.0951 49.3033 75.964 49.216ZM73.6042 57.9729C73.4002 57.7691 73.2983 57.4052 73.2983 56.8811C73.2983 56.6044 73.3347 56.3933 73.4075 56.2478C73.4075 56.175 73.4221 56.0876 73.4512 55.9857C73.4803 55.8838 73.4949 55.8183 73.4949 55.7892C73.4803 55.7018 73.5386 55.4616 73.6697 55.0685C73.8445 54.6754 74.063 54.0713 74.3252 53.256C74.602 52.4407 74.7914 51.8584 74.8933 51.509C74.8933 51.4362 74.9225 51.3779 74.9807 51.3343C75.039 51.276 75.1264 51.2396 75.2429 51.2251C75.4032 51.1668 75.6071 51.2396 75.8547 51.4434C76.1024 51.6327 76.3063 51.8511 76.4665 52.0986C76.5539 52.1859 76.5976 52.3024 76.5976 52.448C76.5976 52.6664 76.5029 52.9721 76.3136 53.3652C76.2407 53.5253 76.1679 53.7219 76.0951 53.9548C76.0368 54.1877 75.9858 54.4061 75.9421 54.6099C75.7673 55.003 75.6289 55.367 75.527 55.7018C75.4833 55.8911 75.4541 56.0367 75.4396 56.1386C75.3376 56.6772 75.2429 57.0266 75.1555 57.1868C75.0681 57.5507 74.9443 57.8274 74.7841 58.0166C74.6238 58.1913 74.4417 58.2787 74.2378 58.2787C73.9902 58.2787 73.779 58.1768 73.6042 57.9729Z" fill="#2A2825"/>
<path d="M84.6448 57.689C84.4263 57.689 84.2078 57.6308 83.9893 57.5143C83.7708 57.3979 83.596 57.2232 83.4649 56.9902L83.3556 56.7719C83.1808 56.2769 83.0934 55.7964 83.0934 55.3306V54.3697C83.0934 54.2096 83.0788 54.1295 83.0497 54.1295C82.9332 54.1295 82.4306 54.6026 81.5421 55.5489C80.9157 56.2041 80.3694 56.7136 79.9033 57.0776C79.4517 57.427 79.1385 57.6017 78.9637 57.6017C78.9055 57.6017 78.7671 57.5507 78.5486 57.4488C78.3301 57.3324 78.1917 57.245 78.1334 57.1868C78.0315 57.0849 77.9659 56.9611 77.9368 56.8155C77.9077 56.67 77.8931 56.3933 77.8931 55.9857C77.8931 55.5198 77.9878 54.9957 78.1771 54.4134C78.3665 53.8165 78.687 53.023 79.1386 52.0331C79.2551 51.8292 79.3716 51.5818 79.4882 51.2906C79.8232 50.5335 80.1364 50.0094 80.4277 49.7183C80.5442 49.7183 80.6244 49.7255 80.6681 49.7401C80.8574 49.7547 81.0759 49.842 81.3236 50.0022C81.5858 50.1623 81.746 50.3734 81.8043 50.6354C81.8043 50.8829 81.7678 51.1304 81.695 51.3779C81.6222 51.6254 81.4547 51.9312 81.1925 52.2951C81.0322 52.5135 80.821 52.9866 80.5588 53.7146C80.486 53.831 80.384 54.013 80.2529 54.2605C80.1364 54.4935 80.0781 54.6245 80.0781 54.6536C80.0927 54.6682 80.1364 54.639 80.2092 54.5662C80.282 54.4789 80.3549 54.3988 80.4277 54.326L81.0177 53.7364C82.1684 52.5863 83.057 51.9967 83.6834 51.9676C84.0038 51.9676 84.2879 52.135 84.5355 52.4698C84.7832 52.8047 84.907 53.205 84.907 53.6709C84.907 53.7583 84.8924 54.0057 84.8633 54.4134V55.6581C85.1983 55.5708 85.4532 55.4907 85.628 55.4179C85.9922 55.2869 86.3709 55.2068 86.7642 55.1777C86.7351 55.4252 86.5967 55.7528 86.3491 56.1604C86.116 56.568 85.8392 56.9247 85.5188 57.2305C85.1983 57.5362 84.907 57.689 84.6448 57.689Z" fill="#2A2825"/>
<path d="M93.8433 58.7591C93.6539 58.8028 93.4719 58.7591 93.2971 58.6281C93.1223 58.497 92.9912 58.3442 92.9038 58.1695C92.8309 57.9657 92.7799 57.7691 92.7508 57.5799C92.7217 57.376 92.6998 57.1067 92.6853 56.7719L92.6634 56.0294L91.7676 56.8374C90.8498 57.6963 89.9977 58.1258 89.2111 58.1258C88.978 58.0821 88.6794 57.8856 88.3152 57.5362C87.9656 57.1868 87.7399 56.8883 87.6379 56.6408C87.5796 56.5244 87.5505 56.3424 87.5505 56.0949C87.5505 55.5417 87.6962 54.8793 87.9875 54.1077C88.2788 53.3215 88.643 52.6882 89.08 52.2078C89.4005 51.7273 89.7865 51.3634 90.238 51.1159C90.6896 50.8684 91.1485 50.7446 91.6146 50.7446C92.0516 50.7446 92.4376 50.8393 92.7727 51.0285C92.9766 51.1304 93.1441 51.1814 93.2752 51.1814C93.4209 51.1814 93.5156 51.0868 93.5593 50.8975C93.5738 50.8247 93.6612 50.5335 93.8215 50.024L94.0618 49.3252C94.3823 48.3643 94.659 47.5927 94.8921 47.0104C95.1252 46.428 95.4092 45.7875 95.7443 45.0887C95.8899 44.7829 96.0429 44.5573 96.2031 44.4117C96.3634 44.2661 96.509 44.2006 96.6401 44.2151C96.8295 44.2151 97.0334 44.2807 97.2519 44.4117C97.485 44.5281 97.6379 44.681 97.7108 44.8703C97.7545 44.9722 97.7763 45.0959 97.7763 45.2415C97.7763 45.4017 97.7326 45.5691 97.6452 45.7438C97.2665 46.3989 96.8004 47.469 96.2468 48.9539C95.6933 50.4389 95.2636 51.7273 94.9577 52.8192C94.8411 53.2123 94.7537 53.7583 94.6955 54.4571C94.6518 55.1559 94.6299 55.8401 94.6299 56.5098C94.6299 57.1504 94.6518 57.5507 94.6955 57.7109C94.7246 57.7982 94.7392 57.9147 94.7392 58.0603C94.7392 58.3078 94.6518 58.4752 94.477 58.5626C94.3167 58.6645 94.1055 58.73 93.8433 58.7591ZM90.238 56.1167C90.5731 55.9857 90.9445 55.7673 91.3524 55.4616C91.7894 55.1413 92.1026 54.8574 92.292 54.6099C92.4959 54.3624 92.6561 54.0494 92.7727 53.6709C92.8018 53.5981 92.8164 53.4962 92.8164 53.3652C92.8164 53.1031 92.6925 52.8629 92.4449 52.6445C92.2992 52.5281 92.1317 52.4698 91.9424 52.4698C91.6365 52.4698 91.316 52.63 90.981 52.9503C90.6022 53.2997 90.2963 53.6927 90.0632 54.1295C89.8302 54.5517 89.6335 55.134 89.4733 55.8765C89.4442 55.9784 89.4587 56.0658 89.517 56.1386C89.5753 56.1968 89.6699 56.2259 89.801 56.2259C89.903 56.2259 90.0487 56.1895 90.238 56.1167Z" fill="#2A2825"/>
<path d="M98.5923 58.0385C98.4466 58.0676 98.3155 58.0821 98.199 58.0821C98.0096 58.0821 97.8348 58.0676 97.6746 58.0385C97.5144 57.9948 97.4342 57.9438 97.4342 57.8856C97.4342 57.8419 97.427 57.8128 97.4124 57.7982C97.3978 57.7837 97.3687 57.7764 97.325 57.7764C97.2813 57.7327 97.1793 57.6599 97.0191 57.558C96.8734 57.4416 96.7496 57.3615 96.6476 57.3178C96.4728 57.0703 96.3854 56.801 96.3854 56.5098C96.3854 56.2332 96.4728 55.7892 96.6476 55.1777C96.6622 54.6099 96.8661 53.9766 97.2594 53.2778C97.6673 52.5645 98.1553 51.9093 98.7234 51.3124C99.2915 50.701 99.8013 50.2642 100.253 50.0022C100.471 49.7838 100.777 49.6746 101.171 49.6746C101.477 49.6746 101.746 49.7401 101.979 49.8711C102.168 49.9876 102.401 50.2351 102.678 50.6136C102.97 50.9921 103.188 51.3343 103.334 51.64C103.363 51.7419 103.399 51.8802 103.443 52.0549C103.501 52.2296 103.53 52.4407 103.53 52.6882L103.487 53.2997C103.312 53.8966 103.225 54.4352 103.225 54.9157C103.195 55.1195 103.21 55.2869 103.268 55.4179C103.326 55.5344 103.407 55.5926 103.509 55.5926C103.581 55.5926 103.662 55.5708 103.749 55.5271C103.836 55.4834 103.938 55.4616 104.055 55.4616C104.244 55.4616 104.404 55.5198 104.536 55.6363C104.667 55.7528 104.732 55.8984 104.732 56.0731C104.732 56.2186 104.696 56.3569 104.623 56.488C104.492 56.7791 104.244 57.0412 103.88 57.2741C103.53 57.5071 103.203 57.6235 102.897 57.6235C102.649 57.6235 102.409 57.4925 102.176 57.2305C101.957 56.9684 101.782 56.6263 101.651 56.2041L101.52 55.7018L100.734 56.4225L100.231 56.9247C99.998 57.1577 99.8669 57.296 99.8377 57.3396C99.7649 57.4561 99.6338 57.5653 99.4444 57.6672C99.2696 57.7691 98.9856 57.8929 98.5923 58.0385ZM99.1822 55.942C99.4444 55.7964 99.6629 55.6145 99.8377 55.3961C100.027 55.1777 100.26 54.872 100.537 54.4789C100.595 54.3915 100.653 54.3042 100.712 54.2168C100.77 54.1149 100.843 54.013 100.93 53.9111C101.178 53.5763 101.353 53.3069 101.455 53.1031C101.571 52.8993 101.659 52.6809 101.717 52.448C101.659 52.2587 101.571 52.084 101.455 51.9239C101.353 51.7492 101.258 51.6545 101.171 51.64C100.763 51.64 100.209 52.1204 99.51 53.0813C99.4372 53.1832 99.3206 53.3652 99.1604 53.6272C99.0147 53.8893 98.92 54.064 98.8763 54.1513C98.8035 54.2532 98.7015 54.5007 98.5704 54.8938C98.4539 55.2723 98.3956 55.5198 98.3956 55.6363C98.3956 55.9566 98.4903 56.1167 98.6797 56.1167C98.8254 56.1167 98.9929 56.0585 99.1822 55.942Z" fill="#2A2825"/>
<path d="M106.768 60.3314C106.68 60.3023 106.505 60.2441 106.243 60.1567C105.981 60.0839 105.799 60.0475 105.697 60.0475C105.522 60.0039 105.377 59.9092 105.26 59.7636C105.158 59.6181 105.107 59.4506 105.107 59.2614C105.107 59.1595 105.114 59.0794 105.129 59.0212C105.173 58.9775 105.209 58.861 105.238 58.6717C105.282 58.497 105.304 58.3369 105.304 58.1913C105.347 58.104 105.384 58.0166 105.413 57.9293C105.442 57.8274 105.478 57.689 105.522 57.5143C105.639 56.8738 105.908 55.7964 106.331 54.2824C106.753 52.7683 107.015 51.9603 107.117 51.8584V51.6181C107.117 51.5745 107.132 51.4871 107.161 51.3561C107.19 51.2251 107.256 51.0868 107.358 50.9412C107.416 50.7665 107.46 50.5991 107.489 50.4389C107.532 50.2642 107.562 50.1332 107.576 50.0458C107.634 49.973 107.729 49.7547 107.86 49.3907C108.006 49.0267 108.1 48.7865 108.144 48.67C108.246 48.3934 108.37 48.0731 108.516 47.7092C108.676 47.3307 108.785 47.0832 108.843 46.9667V46.8575C108.873 46.8284 108.945 46.6828 109.062 46.4208C109.193 46.1441 109.302 45.9112 109.39 45.7219C109.492 45.489 109.761 44.8848 110.198 43.9094C110.227 43.8512 110.307 43.6838 110.438 43.4071C110.57 43.1305 110.635 42.9558 110.635 42.883C110.781 42.7229 110.941 42.6428 111.116 42.6428C111.334 42.6428 111.538 42.7447 111.728 42.9486C111.932 43.1378 112.092 43.3416 112.208 43.56L112.427 43.9094L111.618 45.4817C111.4 45.8748 111.203 46.2461 111.028 46.5955C110.854 46.9303 110.766 47.1268 110.766 47.1851C110.722 47.287 110.642 47.4981 110.526 47.8184C110.424 48.1387 110.307 48.5026 110.176 48.9103C109.972 49.4635 109.805 49.8784 109.674 50.155C109.557 50.388 109.499 50.5263 109.499 50.5699C109.499 50.5117 110.307 50.4826 111.924 50.4826C112.172 50.4826 112.623 50.4753 113.279 50.4607C113.934 50.4462 114.35 50.4243 114.524 50.3952L115.661 50.286L116.272 48.3425C116.418 47.8329 116.739 46.843 117.234 45.3725C117.438 44.7611 117.671 44.3098 117.933 44.0186C118.195 43.7129 118.428 43.56 118.632 43.56C118.69 43.56 118.836 43.6474 119.069 43.8221C119.317 43.9822 119.463 44.1205 119.506 44.237C119.666 44.3971 119.747 44.5645 119.747 44.7392C119.747 44.9431 119.63 45.227 119.397 45.5909C119.222 45.8967 118.975 46.4717 118.654 47.3161C118.523 47.7092 118.443 47.9348 118.414 47.9931C118.414 48.2988 118.341 48.5245 118.195 48.67C118.137 48.7283 118.035 48.9394 117.889 49.3033C117.744 49.6527 117.671 49.8566 117.671 49.9148C117.671 50.0313 117.649 50.1623 117.605 50.3079C117.562 50.4389 117.511 50.5335 117.452 50.5918L117.299 51.1159C116.79 52.9648 116.389 54.246 116.098 54.9593C116.098 55.0321 116.061 55.1631 115.988 55.3524C115.916 55.5417 115.879 55.6727 115.879 55.7455C115.85 55.8474 115.784 56.0512 115.682 56.3569C115.58 56.6627 115.53 56.8447 115.53 56.9029C115.428 57.3542 115.326 57.8856 115.224 58.497C115.122 59.1085 115.056 59.538 115.027 59.7855C114.779 59.8146 114.575 59.8 114.415 59.7418C114.255 59.6836 114.102 59.6035 113.956 59.5016C113.811 59.4142 113.709 59.356 113.65 59.3269C113.301 59.1376 113.126 58.8756 113.126 58.5407C113.126 58.3515 113.192 58.1258 113.323 57.8638C113.366 57.791 113.505 57.3178 113.738 56.4443L113.934 55.6363C114.051 55.316 114.153 55.0103 114.24 54.7191C114.328 54.4134 114.408 54.1513 114.481 53.933C114.714 53.0886 114.859 52.6372 114.918 52.579V52.3606C114.874 52.2878 114.444 52.2514 113.629 52.2514C112.74 52.2514 111.815 52.3097 110.854 52.4261H109.543H108.974C108.902 52.5863 108.69 53.2269 108.341 54.3479C107.991 55.4543 107.795 56.1604 107.751 56.4661C107.649 56.9466 107.489 57.609 107.27 58.4534C107.052 59.3123 106.884 59.9383 106.768 60.3314Z" fill="#2A2825"/>
<path d="M119.445 57.9511C119.198 58.0093 118.899 57.8783 118.55 57.558C118.2 57.2377 117.996 56.9393 117.938 56.6627C117.909 56.5171 117.894 56.3933 117.894 56.2914C117.894 55.7236 118.076 55.0394 118.44 54.2387C118.805 53.4234 119.293 52.6591 119.904 51.9457C120.531 51.2323 121.215 50.7155 121.958 50.3952C122.264 50.2351 122.461 50.155 122.548 50.155C122.636 50.155 122.832 50.2351 123.138 50.3952C123.429 50.468 123.663 50.5481 123.837 50.6354C124.012 50.7228 124.172 50.8611 124.318 51.0504C124.507 51.4289 124.646 51.8948 124.733 52.448C124.821 52.7537 124.864 52.9721 124.864 53.1031C124.864 53.2196 124.821 53.3215 124.733 53.4088C124.719 53.4234 124.689 53.4525 124.646 53.4962C124.617 53.5399 124.602 53.5763 124.602 53.6054C124.602 53.6199 124.617 53.6272 124.646 53.6272C124.646 53.6418 124.638 53.6782 124.624 53.7364C124.609 53.7801 124.58 53.8456 124.537 53.933C124.362 54.4862 124.274 54.9157 124.274 55.2214C124.274 55.3233 124.289 55.447 124.318 55.5926C124.464 55.9711 124.646 56.1604 124.864 56.1604C125.068 56.1604 125.301 56.0294 125.563 55.7673C125.782 55.6217 126 55.5489 126.219 55.5489C126.35 55.5489 126.416 55.5853 126.416 55.6581C126.43 55.6727 126.459 55.6945 126.503 55.7236C126.547 55.7528 126.59 55.7673 126.634 55.7673C126.692 55.7673 126.722 55.8328 126.722 55.9639C126.722 56.0803 126.692 56.2332 126.634 56.4225C126.59 56.6117 126.532 56.7646 126.459 56.8811C126.357 56.983 126.277 57.0703 126.219 57.1431C126.161 57.2159 126.132 57.2741 126.132 57.3178L125.804 57.6235C125.527 57.7837 125.199 57.8638 124.821 57.8638C124.427 57.8638 124.114 57.7837 123.881 57.6235C123.648 57.4634 123.429 57.2669 123.226 57.0339C123.022 56.7864 122.89 56.568 122.832 56.3788L122.723 56.1604L122.089 56.5753L121.543 57.1431C121.427 57.2887 121.325 57.3615 121.237 57.3615H121.019C121.019 57.4634 120.815 57.5871 120.407 57.7327C119.999 57.8783 119.679 57.9511 119.445 57.9511ZM119.904 56.1167C120.065 56.1167 120.392 55.9347 120.888 55.5708C121.397 55.1923 121.74 54.8938 121.915 54.6754C121.973 54.6026 122.046 54.5007 122.133 54.3697C122.235 54.2241 122.322 54.1149 122.395 54.0421C122.628 53.7655 122.796 53.5472 122.898 53.387C123.014 53.2123 123.073 53.0449 123.073 52.8847C123.073 52.7683 123.022 52.6081 122.92 52.4043C122.861 52.2296 122.774 52.1423 122.657 52.1423C122.599 52.1423 122.432 52.1932 122.155 52.2951C121.878 52.4553 121.55 52.7828 121.172 53.2778C120.807 53.7728 120.487 54.2751 120.21 54.7846C119.933 55.2942 119.795 55.6654 119.795 55.8984C119.795 55.942 119.81 55.9857 119.839 56.0294C119.868 56.0731 119.89 56.1022 119.904 56.1167Z" fill="#2A2825"/>
<path d="M129.364 58.4752C128.913 58.4752 128.49 58.3733 128.097 58.1695C127.704 57.9657 127.39 57.7109 127.157 57.4052C126.924 57.0849 126.808 56.7719 126.808 56.4661C126.808 56.2186 126.91 56.0949 127.114 56.0949C127.245 56.124 127.398 56.2041 127.572 56.3351C127.791 56.4661 127.973 56.568 128.119 56.6408C128.279 56.7136 128.439 56.75 128.599 56.75C128.847 56.75 129.058 56.7136 129.233 56.6408C129.422 56.5535 129.532 56.4297 129.561 56.2696C129.561 56.2114 129.532 56.0876 129.473 55.8984C129.415 55.6945 129.342 55.5126 129.255 55.3524C128.934 54.872 128.716 54.4061 128.599 53.9548C128.497 53.4889 128.432 52.9503 128.403 52.3388C128.403 52.0039 128.643 51.6036 129.124 51.1377C129.619 50.6718 130.187 50.2569 130.828 49.893C131.484 49.529 132.015 49.3252 132.423 49.2815C133.224 49.2815 133.705 49.347 133.865 49.478C134.069 49.6382 134.259 49.9002 134.433 50.2642C134.608 50.6282 134.696 50.9339 134.696 51.1814C134.696 51.2833 134.645 51.4143 134.543 51.5745C134.455 51.7201 134.397 51.8147 134.368 51.8584L134.171 52.1641L134.018 52.4917C133.989 52.5645 133.938 52.6736 133.865 52.8192C133.807 52.9648 133.749 53.0522 133.691 53.0813C133.647 53.1104 133.574 53.1177 133.472 53.1031C133.224 53.1031 132.999 52.9939 132.795 52.7756C132.591 52.5572 132.489 52.317 132.489 52.0549C132.489 51.8656 132.554 51.6764 132.685 51.4871C132.817 51.2979 132.882 51.1887 132.882 51.1596C132.882 51.1013 132.817 51.0722 132.685 51.0722C132.496 51.0722 132.205 51.1668 131.811 51.3561C131.418 51.5454 131.069 51.8001 130.763 52.1204C130.457 52.4261 130.304 52.7683 130.304 53.1468C130.304 53.3506 130.34 53.5908 130.413 53.8674C130.5 54.1295 130.595 54.3479 130.697 54.5226C130.814 54.639 130.981 54.9884 131.2 55.5708C131.433 56.1386 131.549 56.5899 131.549 56.9247C131.549 57.4343 131.353 57.8201 130.959 58.0821C130.581 58.3442 130.049 58.4752 129.364 58.4752Z" fill="#2A2825"/>
<path d="M142.815 58.1913C142.407 58.3078 142.102 58.366 141.898 58.366C141.606 58.366 141.366 58.2714 141.177 58.0821C141.133 58.0239 141.053 57.922 140.936 57.7764C140.834 57.6163 140.754 57.4488 140.696 57.2741C140.652 57.0849 140.63 56.8519 140.63 56.5753C140.63 56.3715 140.638 56.1968 140.652 56.0512C140.667 55.9056 140.681 55.7892 140.696 55.7018L140.74 55.0685C140.812 54.7628 140.849 54.4571 140.849 54.1513C140.849 53.7583 140.783 53.5617 140.652 53.5617C140.23 53.4889 139.086 54.508 137.222 56.619C137.047 56.8519 136.952 56.9902 136.938 57.0339C136.792 57.2377 136.668 57.4052 136.566 57.5362C136.464 57.6672 136.391 57.7327 136.348 57.7327C135.954 57.7473 135.619 57.6599 135.343 57.4707C135.066 57.2669 134.906 57.0194 134.862 56.7282C134.847 56.5826 135.139 55.6145 135.736 53.8238L136.697 50.9849C136.814 50.6209 137.025 50.0749 137.331 49.347L137.746 48.277L138.008 47.6218L139.013 44.9576V44.8703C139.013 44.6228 139.064 44.4481 139.166 44.3462L139.472 44.3243C139.472 44.2952 139.574 44.3316 139.778 44.4335C139.997 44.5209 140.193 44.6301 140.368 44.7611C140.557 44.8776 140.652 44.9722 140.652 45.045C140.696 45.1469 140.718 45.2634 140.718 45.3944C140.718 45.7292 140.55 46.3043 140.215 47.1196C140.084 47.3088 139.887 47.7674 139.625 48.4953C139.48 48.903 139.37 49.1869 139.297 49.347C139.152 49.6091 138.933 50.1113 138.642 50.8538C138.351 51.5963 138.11 52.3024 137.921 52.9721C137.804 53.2487 137.746 53.4525 137.746 53.5835C137.746 53.6563 137.768 53.6927 137.812 53.6927C137.914 53.6927 138.074 53.5544 138.292 53.2778C139.079 52.448 139.691 51.8511 140.128 51.4871C140.565 51.1232 140.951 50.9557 141.286 50.9849C141.49 51.0285 141.767 51.2105 142.116 51.5308C142.48 51.8365 142.706 52.1059 142.793 52.3388C142.881 52.6591 142.925 52.9866 142.925 53.3215C142.925 53.5399 142.888 54.1804 142.815 55.2432C142.699 55.9711 142.641 56.3933 142.641 56.5098C142.641 56.6408 142.655 56.7355 142.684 56.7937C142.728 56.8519 142.808 56.932 142.925 57.0339C143.099 57.1649 143.187 57.3469 143.187 57.5799C143.187 57.8565 143.063 58.0603 142.815 58.1913Z" fill="#2A2825"/>
</svg>
