<svg width="14" height="19" viewBox="0 0 14 19" fill="none" xmlns="http://www.w3.org/2000/svg">
<path d="M7.00002 18.1667C5.74764 18.1666 4.52419 17.7902 3.48827 17.0864C2.45236 16.3826 1.65177 15.3839 1.19031 14.2196C0.728843 13.0554 0.627791 11.7793 0.900253 10.5569C1.17271 9.33456 1.80612 8.22223 2.71835 7.36417C3.83668 6.31167 6.58335 4.41667 6.16668 0.25C11.1667 3.58333 13.6667 6.91667 8.66668 11.9167C9.50002 11.9167 10.75 11.9167 12.8334 9.85833C13.0584 10.5025 13.25 11.195 13.25 11.9167C13.25 13.5743 12.5915 15.164 11.4194 16.3361C10.2473 17.5082 8.65762 18.1667 7.00002 18.1667Z" fill="#F69BC8"/>
</svg>
