<svg width="16" height="20" viewBox="0 0 16 20" fill="none" xmlns="http://www.w3.org/2000/svg">
<path d="M1.1525 2.35501L8 0.833344L14.8475 2.35501C15.0326 2.39615 15.198 2.49915 15.3167 2.64701C15.4353 2.79488 15.5 2.97877 15.5 3.16834V11.4908C15.4999 12.314 15.2967 13.1243 14.9082 13.85C14.5198 14.5757 13.9582 15.1943 13.2733 15.6508L8 19.1667L2.72667 15.6508C2.04189 15.1944 1.48038 14.5759 1.09196 13.8504C0.70353 13.1248 0.500197 12.3146 0.5 11.4917V3.16834C0.500033 2.97877 0.564698 2.79488 0.683325 2.64701C0.801951 2.49915 0.967447 2.39615 1.1525 2.35501ZM8 11.25L10.4492 12.5375L9.98167 9.81084L11.9625 7.87918L9.22417 7.48084L8 5.00001L6.775 7.48084L4.0375 7.87918L6.01833 9.81084L5.55167 12.5375L8 11.25Z" fill="#9295DC"/>
</svg>
