<svg width="16" height="16" viewBox="0 0 16 16" fill="none" xmlns="http://www.w3.org/2000/svg">
<path d="M10.8343 15.5V9.695H12.7785L13.0693 7.43833H10.8343V5.99833C10.8343 5.345 11.016 4.89917 11.9527 4.89917H13.1477V2.88083C12.5692 2.81945 11.9877 2.78969 11.406 2.79167C9.68349 2.79167 8.50433 3.84333 8.50433 5.775V7.43833H6.55599V9.695H8.50433V15.5H1.33266C1.11165 15.5 0.899687 15.4122 0.743406 15.2559C0.587126 15.0996 0.499329 14.8877 0.499329 14.6667V1.33333C0.499329 1.11232 0.587126 0.900358 0.743406 0.744078C0.899687 0.587797 1.11165 0.5 1.33266 0.5H14.666C14.887 0.5 15.099 0.587797 15.2553 0.744078C15.4115 0.900358 15.4993 1.11232 15.4993 1.33333V14.6667C15.4993 14.8877 15.4115 15.0996 15.2553 15.2559C15.099 15.4122 14.887 15.5 14.666 15.5H10.8343Z" fill="#AAA9A8"/>
</svg>
