<svg width="18" height="18" viewBox="0 0 18 18" fill="none" xmlns="http://www.w3.org/2000/svg">
<path d="M8.99932 0.666672C11.2635 0.666672 11.546 0.675005 12.4343 0.716672C13.3218 0.758338 13.926 0.897505 14.4577 1.10417C15.0077 1.31584 15.471 1.60251 15.9343 2.06501C16.3581 2.48159 16.6859 2.9855 16.8952 3.54167C17.101 4.0725 17.241 4.67751 17.2827 5.56501C17.3218 6.45334 17.3327 6.73584 17.3327 9.00001C17.3327 11.2642 17.3243 11.5467 17.2827 12.435C17.241 13.3225 17.101 13.9267 16.8952 14.4583C16.6866 15.0148 16.3586 15.5189 15.9343 15.935C15.5176 16.3586 15.0137 16.6865 14.4577 16.8958C13.9268 17.1017 13.3218 17.2417 12.4343 17.2833C11.546 17.3225 11.2635 17.3333 8.99932 17.3333C6.73515 17.3333 6.45265 17.325 5.56432 17.2833C4.67682 17.2417 4.07265 17.1017 3.54099 16.8958C2.98459 16.6871 2.48059 16.3591 2.06432 15.935C1.64049 15.5185 1.31259 15.0146 1.10349 14.4583C0.896819 13.9275 0.757652 13.3225 0.715985 12.435C0.676818 11.5467 0.665985 11.2642 0.665985 9.00001C0.665985 6.73584 0.674318 6.45334 0.715985 5.56501C0.757652 4.67667 0.896819 4.07334 1.10349 3.54167C1.31202 2.98515 1.63999 2.48111 2.06432 2.06501C2.48071 1.64103 2.98468 1.31311 3.54099 1.10417C4.07265 0.897505 4.67599 0.758338 5.56432 0.716672C6.45265 0.677505 6.73515 0.666672 8.99932 0.666672ZM8.99932 4.83334C7.89425 4.83334 6.83444 5.27233 6.05304 6.05373C5.27164 6.83513 4.83265 7.89494 4.83265 9.00001C4.83265 10.1051 5.27164 11.1649 6.05304 11.9463C6.83444 12.7277 7.89425 13.1667 8.99932 13.1667C10.1044 13.1667 11.1642 12.7277 11.9456 11.9463C12.727 11.1649 13.166 10.1051 13.166 9.00001C13.166 7.89494 12.727 6.83513 11.9456 6.05373C11.1642 5.27233 10.1044 4.83334 8.99932 4.83334ZM14.416 4.62501C14.416 4.34874 14.3062 4.08379 14.1109 3.88844C13.9155 3.69309 13.6506 3.58334 13.3743 3.58334C13.0981 3.58334 12.8331 3.69309 12.6377 3.88844C12.4424 4.08379 12.3327 4.34874 12.3327 4.62501C12.3327 4.90127 12.4424 5.16622 12.6377 5.36157C12.8331 5.55693 13.0981 5.66667 13.3743 5.66667C13.6506 5.66667 13.9155 5.55693 14.1109 5.36157C14.3062 5.16622 14.416 4.90127 14.416 4.62501ZM8.99932 6.50001C9.66236 6.50001 10.2982 6.7634 10.7671 7.23224C11.2359 7.70108 11.4993 8.33696 11.4993 9.00001C11.4993 9.66305 11.2359 10.2989 10.7671 10.7678C10.2982 11.2366 9.66236 11.5 8.99932 11.5C8.33628 11.5 7.70039 11.2366 7.23155 10.7678C6.76271 10.2989 6.49932 9.66305 6.49932 9.00001C6.49932 8.33696 6.76271 7.70108 7.23155 7.23224C7.70039 6.7634 8.33628 6.50001 8.99932 6.50001Z" fill="#AAA9A8"/>
</svg>
