<svg width="18" height="14" viewBox="0 0 18 14" fill="none" xmlns="http://www.w3.org/2000/svg">
<path d="M17.4676 1.71333C16.8314 1.99474 16.1568 2.17956 15.466 2.26167C16.1941 1.82619 16.7391 1.14084 16.9993 0.333333C16.316 0.74 15.5668 1.025 14.786 1.17917C14.2615 0.617982 13.5663 0.245803 12.8084 0.120487C12.0506 -0.0048282 11.2726 0.123742 10.5954 0.486211C9.91814 0.848679 9.37963 1.42474 9.06357 2.12483C8.74751 2.82492 8.6716 3.60982 8.84764 4.3575C7.4619 4.28804 6.10625 3.92794 4.86872 3.30055C3.63118 2.67317 2.53942 1.79254 1.66431 0.715833C1.35455 1.24788 1.19177 1.85269 1.19264 2.46833C1.19264 3.67667 1.80764 4.74417 2.74264 5.36917C2.18932 5.35175 1.64817 5.20232 1.16431 4.93333V4.97667C1.16448 5.78142 1.44295 6.56135 1.95252 7.18422C2.46208 7.80709 3.17138 8.23456 3.96014 8.39417C3.44649 8.53336 2.9079 8.55388 2.38514 8.45417C2.60753 9.14686 3.04098 9.75266 3.6248 10.1868C4.20863 10.6208 4.91358 10.8615 5.64098 10.875C4.91805 11.4428 4.09029 11.8625 3.20505 12.1101C2.3198 12.3578 1.39442 12.4285 0.481812 12.3183C2.07489 13.3429 3.92939 13.8868 5.82348 13.885C12.2343 13.885 15.7401 8.57417 15.7401 3.96833C15.7401 3.81833 15.736 3.66667 15.7293 3.51833C16.4117 3.02514 17.0006 2.41418 17.4685 1.71417L17.4676 1.71333Z" fill="#AAA9A8"/>
</svg>
