<svg width="16" height="16" viewBox="0 0 16 16" fill="none" xmlns="http://www.w3.org/2000/svg">
<path d="M13.2785 13.2825H11.0577V9.80167C11.0577 8.97167 11.041 7.90333 9.89933 7.90333C8.74183 7.90333 8.56516 8.80667 8.56516 9.74083V13.2825H6.34349V6.125H8.47683V7.1H8.50599C8.80433 6.53833 9.52933 5.94417 10.6127 5.94417C12.8627 5.94417 13.2793 7.42583 13.2793 9.35333V13.2825H13.2785ZM3.83516 5.14583C3.66562 5.14605 3.49771 5.11281 3.34105 5.04801C3.18438 4.9832 3.04205 4.88812 2.92221 4.7682C2.80237 4.64828 2.70737 4.50588 2.64267 4.34918C2.57797 4.19247 2.54483 4.02454 2.54516 3.855C2.54533 3.59986 2.62115 3.3505 2.76303 3.13846C2.90491 2.92641 3.10649 2.76119 3.34227 2.66371C3.57805 2.56623 3.83744 2.54085 4.08765 2.59078C4.33785 2.64072 4.56763 2.76373 4.74792 2.94426C4.92821 3.12478 5.05092 3.35472 5.10054 3.60498C5.15015 3.85525 5.12444 4.11461 5.02665 4.35026C4.92886 4.58592 4.76338 4.78728 4.55115 4.92889C4.33892 5.0705 4.08947 5.146 3.83433 5.14583H3.83516ZM4.94849 13.2825H2.721V6.125H4.94933V13.2825H4.94849ZM14.391 0.5H1.60683C0.993495 0.5 0.499329 0.983333 0.499329 1.58083V14.4192C0.499329 15.0167 0.994329 15.5 1.606 15.5H14.3877C14.9993 15.5 15.4993 15.0167 15.4993 14.4192V1.58083C15.4993 0.983333 14.9993 0.5 14.3877 0.5H14.3902H14.391Z" fill="#AAA9A8"/>
</svg>
