<svg width="18" height="14" viewBox="0 0 18 14" fill="none" xmlns="http://www.w3.org/2000/svg">
<path d="M16.9518 2.41499C17.3327 3.89999 17.3327 6.99999 17.3327 6.99999C17.3327 6.99999 17.3327 10.1 16.9518 11.585C16.7402 12.4058 16.121 13.0517 15.3368 13.27C13.9127 13.6667 8.99935 13.6667 8.99935 13.6667C8.99935 13.6667 4.08852 13.6667 2.66185 13.27C1.87435 13.0483 1.25602 12.4033 1.04685 11.585C0.666016 10.1 0.666016 6.99999 0.666016 6.99999C0.666016 6.99999 0.666016 3.89999 1.04685 2.41499C1.25852 1.59416 1.87768 0.948328 2.66185 0.729995C4.08852 0.333328 8.99935 0.333328 8.99935 0.333328C8.99935 0.333328 13.9127 0.333328 15.3368 0.729995C16.1243 0.951661 16.7427 1.59666 16.9518 2.41499ZM7.33268 9.91666L12.3327 6.99999L7.33268 4.08333V9.91666Z" fill="#AAA9A8"/>
</svg>
