<svg width="18" height="18" viewBox="0 0 18 18" fill="none" xmlns="http://www.w3.org/2000/svg">
<path d="M8.99935 17.3333C4.39685 17.3333 0.666016 13.6025 0.666016 9.00001C0.666016 4.39751 4.39685 0.666672 8.99935 0.666672C13.6018 0.666672 17.3327 4.39751 17.3327 9.00001C17.3327 13.6025 13.6018 17.3333 8.99935 17.3333ZM6.40768 9.97501L6.41852 9.96917L7.14352 12.3608C7.23685 12.62 7.36518 12.6667 7.52102 12.645C7.67768 12.6242 7.76018 12.54 7.86268 12.4417L8.85268 11.485L10.9777 13.0583C11.366 13.2725 11.6452 13.1617 11.7418 12.6983L13.1227 6.18001C13.2752 5.57334 13.0085 5.33001 12.5377 5.52334L4.42685 8.65667C3.87352 8.87834 3.87685 9.18834 4.32685 9.32584L6.40768 9.97584V9.97501Z" fill="#AAA9A8"/>
</svg>
