<svg width="18" height="18" viewBox="0 0 18 18" fill="none" xmlns="http://www.w3.org/2000/svg">
<path d="M1.20831 14.3142L2.33331 14.7683V9.30582L0.748308 13.2292C0.665434 13.434 0.667339 13.6634 0.753605 13.8669C0.839871 14.0704 1.00343 14.2313 1.20831 14.3142Z" fill="url(#paint0_linear_614_868)"/>
<path d="M4.83331 16.5H6.38331L3.99998 10.6017V15.6667C3.99998 15.8877 4.08777 16.0996 4.24405 16.2559C4.40033 16.4122 4.61229 16.5 4.83331 16.5Z" fill="url(#paint1_linear_614_868)"/>
<path d="M11.745 0.851657L4.01831 3.97332L4.01914 3.97416C3.81432 4.05689 3.65073 4.21756 3.56431 4.42085C3.4779 4.62415 3.47574 4.85344 3.55831 5.05832L8.23998 16.6475C8.28094 16.749 8.3415 16.8415 8.4182 16.9196C8.4949 16.9977 8.58624 17.0599 8.687 17.1027C8.78776 17.1455 8.89596 17.168 9.00543 17.169C9.11489 17.1699 9.22348 17.1493 9.32498 17.1083L17.0516 13.9867C17.1532 13.9457 17.2456 13.8851 17.3237 13.8084C17.4018 13.7317 17.4641 13.6404 17.5069 13.5396C17.5496 13.4389 17.5722 13.3307 17.5731 13.2212C17.5741 13.1117 17.5535 13.0032 17.5125 12.9017L12.8291 1.31166C12.7463 1.10699 12.5855 0.943581 12.3822 0.857332C12.179 0.771084 11.9498 0.769042 11.745 0.851657Z" fill="url(#paint2_linear_614_868)"/>
<defs>
<linearGradient id="paint0_linear_614_868" x1="9.13033" y1="0.791138" x2="9.13033" y2="17.169" gradientUnits="userSpaceOnUse">
<stop stop-color="#EA70C3"/>
<stop offset="1" stop-color="#F5736D"/>
</linearGradient>
<linearGradient id="paint1_linear_614_868" x1="9.13033" y1="0.791138" x2="9.13033" y2="17.169" gradientUnits="userSpaceOnUse">
<stop stop-color="#EA70C3"/>
<stop offset="1" stop-color="#F5736D"/>
</linearGradient>
<linearGradient id="paint2_linear_614_868" x1="9.13033" y1="0.791138" x2="9.13033" y2="17.169" gradientUnits="userSpaceOnUse">
<stop stop-color="#EA70C3"/>
<stop offset="1" stop-color="#F5736D"/>
</linearGradient>
</defs>
</svg>
